<?xml version="1.0" standalone="no"?>
<!DOCTYPE svg PUBLIC "-//W3C//DTD SVG 20010904//EN"
 "http://www.w3.org/TR/2001/REC-SVG-20010904/DTD/svg10.dtd">
<svg version="1.0" xmlns="http://www.w3.org/2000/svg"
 width="1280.000000pt" height="1280.000000pt" viewBox="0 0 1280.000000 1280.000000"
 preserveAspectRatio="xMidYMid meet">

<g transform="translate(0.000000,1280.000000) scale(0.100000,-0.100000)"
fill="#000000" stroke="none">
<path d="M0 11832 l0 -968 30 -17 c16 -10 35 -23 42 -30 39 -36 211 -156 258
-179 8 -5 34 -23 57 -41 24 -17 84 -62 135 -100 144 -104 142 -102 130 -137
-6 -16 -7 -30 -3 -30 12 0 21 26 21 56 0 14 5 34 10 44 7 13 7 21 0 25 -13 8
-13 25 0 25 5 0 15 -18 21 -40 16 -51 23 -45 10 9 -5 22 -5 41 -1 41 4 0 13
15 21 33 7 17 25 48 41 68 15 20 28 41 28 46 0 6 14 24 30 41 17 18 30 36 30
42 0 5 5 10 11 10 6 0 9 -8 6 -19 -5 -22 24 -51 51 -50 13 0 12 3 -5 11 -31
15 -29 27 6 39 26 9 30 17 34 52 l4 42 1 -49 c2 -45 4 -48 25 -42 12 3 25 6
30 6 4 0 8 19 8 43 2 29 3 34 6 15 3 -20 10 -28 24 -28 10 0 19 -7 19 -15 0
-21 27 -19 34 3 3 9 4 1 3 -20 l-3 -36 43 0 c37 0 43 3 43 20 0 14 -5 18 -15
14 -18 -6 -20 10 -3 20 6 4 14 2 16 -4 2 -7 12 -12 23 -12 16 0 19 7 19 40 0
41 6 45 53 41 13 -2 17 6 19 38 0 23 1 47 2 54 1 16 21 37 35 37 17 0 13 -21
-6 -36 -16 -12 -10 -13 40 -14 50 0 57 2 57 20 0 11 4 20 9 20 14 0 41 -41 35
-52 -3 -4 7 -8 21 -8 21 0 26 4 21 16 -4 10 -1 14 6 11 7 -2 12 -12 12 -21 -3
-25 15 -19 26 9 10 25 24 32 34 17 7 -12 -36 -70 -56 -76 -10 -2 -18 -13 -18
-24 0 -10 -9 -27 -20 -37 -11 -10 -20 -22 -20 -27 0 -8 -129 -208 -140 -218
-9 -7 -140 -218 -140 -224 0 -3 -16 -30 -35 -60 -39 -61 -157 -303 -233 -476
-192 -441 -342 -909 -402 -1255 -11 -66 -24 -139 -29 -162 -9 -44 -2 -53 38
-53 10 0 59 -20 109 -45 50 -24 104 -46 119 -47 25 -3 28 1 45 62 20 74 22
108 5 69 -10 -21 -14 -24 -24 -14 -7 7 -17 15 -24 17 -19 6 20 65 52 79 32 13
31 9 103 294 49 196 160 532 232 709 57 137 236 503 300 611 162 275 352 553
474 695 31 36 69 83 85 105 99 134 549 601 660 685 33 24 94 74 135 111 125
110 363 296 394 308 6 2 44 28 83 58 74 54 209 143 218 143 3 0 36 20 75 45
177 113 716 371 940 449 79 27 283 87 385 112 33 8 85 22 115 29 65 17 80 18
80 6 0 -5 -19 -12 -42 -15 -61 -9 -85 -26 -33 -23 22 1 42 5 45 8 3 4 14 9 26
13 15 4 21 2 21 -9 0 -8 -4 -15 -9 -15 -5 0 -7 -4 -4 -9 9 -13 -21 -33 -49
-33 -15 0 -25 -6 -25 -15 0 -10 4 -11 19 -3 11 5 27 7 35 4 22 -8 68 4 61 16
-3 6 2 10 12 10 15 0 16 2 3 10 -12 7 -10 11 10 18 25 9 24 9 -9 17 l-35 7 40
14 c45 16 69 12 104 -16 16 -13 19 -18 7 -14 -12 4 -17 2 -15 -7 2 -8 -4 -13
-14 -11 -9 1 -20 -3 -24 -9 -5 -9 6 -10 42 -5 27 4 57 9 67 12 9 3 17 0 17 -6
0 -6 15 -10 38 -8 31 3 37 0 40 -17 2 -17 -3 -21 -33 -23 -19 -2 -45 -6 -57
-11 -18 -6 -19 -9 -5 -14 10 -4 17 -2 17 4 0 10 187 5 198 -5 3 -3 -9 -6 -26
-6 -29 0 -32 -3 -32 -29 0 -17 4 -33 10 -36 6 -3 10 1 10 10 0 10 14 30 31 46
29 27 34 29 66 18 32 -10 33 -12 18 -29 -15 -17 -15 -19 14 -25 17 -4 33 -11
36 -16 4 -5 30 -10 58 -10 63 -2 56 -3 -108 -24 -71 -9 -170 -26 -220 -36
-250 -55 -372 -86 -495 -124 -74 -24 -189 -59 -255 -79 -119 -37 -210 -72
-155 -60 24 5 34 -14 274 -491 136 -273 246 -499 243 -502 -15 -14 -172 -72
-178 -65 -4 4 -64 120 -134 257 -70 138 -130 255 -134 260 -7 9 -161 304 -217
415 l-24 49 -58 -26 c-173 -76 -513 -252 -635 -329 -23 -14 -82 -51 -132 -81
-49 -31 -130 -88 -180 -128 -49 -39 -117 -89 -150 -110 -69 -44 -119 -83 -225
-175 -185 -160 -230 -201 -230 -209 0 -4 21 -29 46 -57 26 -27 89 -98 142
-159 115 -134 191 -215 200 -215 4 0 20 -18 35 -40 16 -22 32 -40 36 -40 5 0
7 24 5 53 -4 78 -8 91 -24 99 -12 5 -11 7 3 7 11 1 21 -8 24 -19 3 -12 10 -19
16 -17 16 5 21 28 6 25 -7 -2 -15 5 -17 15 -3 13 3 17 30 17 18 0 44 3 57 7
16 4 22 2 18 -4 -4 -6 7 -16 23 -23 17 -7 30 -19 30 -26 0 -8 4 -14 9 -14 5 0
7 9 4 20 -6 21 12 28 20 8 2 -7 8 -10 12 -6 4 4 2 16 -6 25 -11 15 -10 15 9
-1 12 -11 22 -26 22 -34 0 -12 3 -12 15 -2 12 10 8 20 -34 69 -68 80 -135 180
-127 189 8 8 186 -174 186 -190 0 -6 7 -8 15 -4 9 3 15 0 15 -10 0 -18 25 -46
34 -37 3 4 6 -2 6 -11 0 -12 5 -16 15 -12 9 3 15 0 15 -10 0 -11 6 -14 16 -10
8 3 13 2 9 -3 -8 -14 5 -41 21 -41 8 0 14 -5 14 -11 0 -6 6 -9 12 -6 7 3 21 8
31 12 10 4 17 3 17 -5 0 -6 -4 -9 -8 -6 -5 3 -7 -14 -6 -37 2 -53 2 -53 16
-39 17 17 33 15 18 -3 -21 -25 -2 -31 20 -7 24 25 32 28 24 8 -3 -7 3 -21 13
-31 9 -10 18 -24 19 -31 3 -20 -16 -28 -29 -14 -9 10 -9 11 1 6 14 -8 16 3 3
22 -6 11 -10 10 -15 -4 -4 -9 -1 -25 6 -34 7 -10 31 -40 52 -68 l40 -52 28 33
c22 25 29 29 37 18 5 -7 14 -10 20 -7 7 4 11 0 11 -12 0 -15 7 -19 30 -18 24
1 30 5 30 23 0 12 9 27 21 34 12 6 19 7 15 1 -6 -10 19 -36 47 -45 14 -5 16
-11 8 -25 -9 -16 -7 -19 12 -18 22 1 64 -32 60 -46 -2 -4 3 -5 11 -2 7 3 19
-3 27 -12 12 -15 11 -16 -11 -10 -21 6 -22 5 -7 -4 9 -6 21 -9 26 -5 5 3 12
-4 16 -15 4 -11 10 -18 14 -15 5 2 34 -20 65 -49 31 -30 56 -50 56 -46 0 4
-35 41 -77 81 -43 40 -125 121 -183 179 -98 97 -108 112 -150 205 -38 86 -69
141 -115 204 -5 8 -51 57 -101 108 -122 124 -192 158 -366 182 -123 16 -149
29 -107 52 32 17 206 5 297 -21 103 -29 168 -74 305 -212 103 -102 119 -116
124 -97 4 15 8 17 14 8 4 -8 4 -16 -2 -20 -19 -11 11 -63 64 -112 29 -26 144
-138 257 -250 112 -111 193 -189 180 -173 -14 16 -53 58 -87 93 -35 35 -63 67
-63 72 0 5 -9 11 -20 14 -11 3 -20 10 -20 17 0 6 5 8 13 4 9 -6 8 -3 -1 8 -8
9 -19 15 -27 12 -7 -3 -16 3 -20 15 -3 12 -13 21 -21 21 -10 0 -13 8 -10 26 4
19 2 23 -7 15 -9 -7 -21 -1 -43 22 -30 31 -30 34 -17 65 7 17 19 32 27 32 8 0
20 13 27 29 7 17 20 32 29 35 8 3 21 9 28 12 8 4 10 0 6 -10 -3 -9 -13 -16
-21 -16 -11 0 -13 -7 -9 -24 4 -18 1 -28 -11 -35 -10 -5 -14 -13 -10 -18 5 -4
14 -1 20 7 7 9 18 15 25 14 6 -1 17 -2 22 -3 18 -2 10 -21 -8 -21 -10 0 -19
-7 -19 -15 0 -8 9 -15 19 -15 10 0 18 5 18 11 0 8 18 10 61 5 34 -3 104 -1
157 6 74 9 97 9 100 0 5 -15 102 -16 102 -2 0 6 14 10 30 10 23 0 30 4 30 20
0 11 5 20 10 20 6 0 10 -14 10 -31 0 -24 4 -30 18 -27 10 2 18 14 20 31 4 31
22 37 22 7 0 -11 7 -20 15 -20 8 0 15 9 15 19 0 11 3 27 7 37 5 13 3 16 -10
11 -9 -3 -17 -2 -17 3 0 6 6 10 13 10 7 0 18 9 25 20 7 11 17 20 22 20 6 0 10
-9 10 -20 0 -14 -7 -20 -21 -20 -18 0 -19 -2 -5 -15 19 -19 26 -19 42 2 11 17
14 16 38 -10 30 -32 40 -34 31 -6 -5 15 -4 19 5 14 7 -5 10 -19 6 -39 -5 -28
-4 -29 8 -13 12 16 15 14 34 -26 11 -24 28 -50 38 -58 10 -8 -8 34 -39 92 -31
58 -57 111 -57 116 0 6 12 14 27 18 15 3 30 10 33 14 9 12 120 61 139 61 19 0
67 -81 145 -245 16 -33 31 -54 33 -47 3 8 0 19 -6 25 -17 17 -13 31 4 17 21
-18 19 -7 -5 20 -11 13 -20 32 -20 44 0 17 -2 18 -10 6 -8 -13 -10 -13 -10 2
0 9 -3 18 -7 21 -5 2 -3 2 4 1 7 -2 15 2 19 8 4 6 3 8 -4 4 -6 -3 -13 -2 -17
4 -4 6 11 10 40 10 32 0 57 7 77 21 25 18 32 19 39 8 8 -11 13 -10 28 9 11 12
26 22 35 22 9 0 16 8 16 20 0 17 7 20 40 20 22 0 40 4 40 9 0 6 16 7 36 4 28
-5 39 -2 46 10 5 10 14 17 19 17 6 0 7 -4 4 -10 -3 -5 1 -10 9 -10 9 0 16 5
16 11 0 6 12 9 28 8 15 -2 38 4 52 14 18 13 26 14 32 4 5 -9 8 -7 8 4 0 17 20
24 102 36 23 3 39 11 41 21 3 12 5 10 6 -5 0 -13 7 -22 13 -20 7 1 14 -8 16
-21 4 -28 30 -41 43 -21 5 8 9 43 10 79 1 36 5 79 10 95 7 25 7 22 3 -13 -5
-49 6 -173 15 -168 3 2 4 -23 3 -56 -5 -71 5 -148 19 -148 5 0 9 168 9 429 0
288 3 432 10 436 6 4 49 4 95 0 l85 -7 1 -117 c1 -139 25 -703 28 -646 2 52
11 86 22 80 4 -3 11 10 15 30 8 43 28 47 22 5 -3 -16 -1 -30 4 -30 4 0 8 5 8
11 0 5 4 8 9 4 5 -3 16 3 23 14 14 19 14 19 26 1 9 -14 8 -20 -1 -23 -7 -3 -2
-6 11 -6 24 -1 26 19 2 32 -8 4 6 5 33 1 35 -4 47 -2 47 8 1 9 5 7 14 -4 7
-10 21 -18 30 -18 9 0 15 -3 15 -7 -5 -31 3 -33 116 -33 90 0 123 -4 148 -17
25 -13 55 -17 137 -15 58 1 99 -1 93 -4 -7 -3 -13 -16 -13 -30 0 -36 25 -20
28 18 3 39 4 40 39 42 15 1 33 5 40 9 14 9 45 -2 37 -14 -3 -5 0 -9 5 -9 10 0
13 6 15 40 2 24 81 21 135 -5 25 -12 64 -28 86 -36 22 -7 44 -16 48 -20 8 -6
-74 -169 -165 -328 -26 -46 -48 -85 -48 -87 0 -11 20 -2 20 9 1 16 35 57 49
57 17 0 33 38 18 43 -7 2 7 23 36 52 26 27 47 53 47 59 0 6 10 16 22 21 12 6
28 26 35 45 7 19 12 25 9 14 -2 -12 0 -28 5 -35 7 -12 9 -11 9 1 0 13 1 13 11
0 9 -12 10 -11 6 8 -4 19 -1 22 24 22 29 0 29 -1 29 -56 0 -54 21 -97 38 -79
4 4 1 10 -5 12 -15 5 -17 33 -3 33 6 0 10 9 10 20 0 16 7 20 30 20 20 0 30 -5
30 -15 0 -12 16 -15 80 -15 47 0 80 -4 80 -10 0 -6 47 -10 121 -10 77 0 118
-4 114 -10 -3 -5 -24 -10 -46 -10 -26 0 -38 -4 -34 -11 4 -6 22 -8 46 -4 27 5
39 3 39 -5 0 -18 28 -42 35 -30 3 5 1 10 -4 10 -7 0 -7 7 1 20 13 20 37 23 50
6 10 -14 38 13 31 30 -4 10 0 12 12 8 11 -5 15 -2 13 7 -2 8 -1 15 2 15 3 0
15 6 27 12 19 10 27 7 69 -33 26 -25 51 -45 55 -45 17 0 47 43 42 59 -4 13 -3
14 5 1 9 -12 45 20 187 162 118 118 174 181 169 190 -5 10 -4 10 6 1 10 -9 18
-8 37 7 14 11 49 28 78 39 100 37 443 69 433 40 -4 -13 -31 -24 -191 -75 -137
-43 -207 -83 -308 -174 -39 -36 -83 -76 -98 -88 -72 -65 -110 -103 -156 -156
-56 -65 -64 -79 -41 -70 9 3 16 10 16 15 0 4 7 6 15 3 8 -3 29 6 46 20 25 22
41 26 90 26 58 0 81 -14 37 -23 -17 -3 -14 -5 10 -6 38 -1 42 -16 7 -25 -23
-6 -24 -8 -11 -21 8 -8 21 -15 28 -15 8 1 5 7 -7 16 -19 15 -19 16 6 12 14 -1
33 4 41 13 9 8 35 31 58 50 66 54 99 89 96 102 -1 7 -1 9 1 5 3 -5 11 -8 19
-8 14 0 18 12 14 39 -1 12 1 13 13 3 15 -13 47 -7 47 8 0 5 10 12 23 16 12 4
39 22 60 40 20 19 42 34 47 34 6 0 11 24 11 53 1 28 3 44 6 35 5 -22 33 -24
33 -3 0 8 8 15 18 15 12 0 24 15 36 45 10 24 23 42 27 39 12 -7 39 20 39 38 0
8 -5 6 -11 -5 -9 -16 -29 -15 -29 2 0 10 62 31 93 31 24 0 27 -4 27 -31 0 -29
-2 -31 -28 -26 -15 3 -34 2 -42 -4 -11 -6 -7 -9 15 -10 17 -1 33 -1 38 0 4 0
7 -5 7 -11 0 -7 6 -2 13 11 6 13 23 31 37 40 23 15 24 15 12 -1 -11 -14 -9
-16 15 -15 15 1 33 9 40 17 9 12 8 16 -10 21 -21 6 -20 7 7 14 19 5 31 4 36
-4 5 -9 9 -8 14 4 3 10 12 15 20 12 8 -3 17 -2 20 4 2 5 3 4 2 -3 -2 -7 -11
-12 -20 -12 -20 2 -20 -1 0 -21 12 -12 13 -19 4 -30 -6 -7 -10 -25 -8 -39 3
-25 6 -23 71 39 37 36 67 69 67 74 0 23 -487 456 -591 526 -24 16 -46 32 -49
35 -17 17 -128 94 -205 141 -159 98 -207 125 -372 208 -89 44 -164 85 -168 91
-3 5 -11 10 -16 10 -6 0 -7 -5 -4 -10 4 -6 -12 -40 -35 -76 -43 -68 -182 -314
-252 -444 -22 -41 -46 -82 -53 -90 -6 -8 -36 -59 -65 -113 -29 -54 -70 -128
-91 -164 -21 -37 -41 -79 -44 -95 -4 -15 -11 -28 -16 -28 -5 0 -46 14 -92 32
l-84 31 1 38 c0 21 4 33 7 27 4 -6 39 54 79 133 40 79 76 149 80 154 4 6 29
50 55 100 27 49 57 106 68 125 12 19 48 87 82 150 34 63 84 149 111 190 27 41
53 81 57 87 5 7 -5 18 -25 27 -61 28 -183 77 -218 88 -19 5 -39 14 -45 18 -5
4 -32 15 -60 23 -27 9 -81 27 -120 41 -38 13 -122 38 -185 55 -63 17 -129 36
-146 41 -71 23 -508 104 -654 121 -112 14 -117 22 -10 16 61 -4 72 -3 40 3
-39 7 -34 8 40 8 163 0 190 2 190 13 0 6 14 24 31 40 28 27 37 29 104 29 41 0
77 -4 80 -10 10 -16 40 -11 63 10 23 22 42 26 42 10 0 -5 20 -10 45 -10 25 0
45 5 45 10 0 6 9 10 19 10 11 0 23 -4 26 -10 3 -5 22 -10 41 -10 19 0 34 5 34
10 0 6 -11 10 -24 10 -14 0 -28 5 -32 11 -4 8 1 9 16 4 19 -6 21 -5 11 13 -14
26 -14 35 -1 27 6 -3 10 -1 10 4 0 6 -10 11 -23 11 -13 0 -32 7 -43 16 -19 15
-19 16 1 9 11 -4 51 -13 90 -21 38 -9 75 -20 82 -25 7 -6 16 -8 21 -5 10 6
172 -37 292 -77 215 -71 553 -213 771 -322 86 -44 433 -249 501 -297 388 -274
548 -407 844 -703 273 -273 467 -504 615 -730 157 -241 201 -309 232 -365 40
-70 64 -112 136 -235 44 -76 144 -274 199 -395 73 -164 253 -652 292 -795 10
-38 27 -101 38 -140 11 -38 25 -98 32 -132 13 -62 13 -63 54 -74 22 -6 85 -31
139 -56 88 -40 104 -45 153 -41 30 3 56 7 58 9 2 2 -5 42 -16 89 -10 47 -28
126 -39 175 -11 50 -29 122 -40 160 -11 39 -27 93 -35 120 -9 28 -26 79 -39
115 -12 36 -31 90 -40 120 -18 59 -85 233 -140 365 -18 44 -56 136 -85 205
-72 175 -267 565 -305 610 -6 8 -23 35 -36 60 -21 40 -90 144 -201 308 -20 30
-42 68 -49 86 -7 17 -20 38 -29 46 -9 8 -35 43 -58 77 -23 34 -73 102 -112
150 -38 48 -73 93 -78 98 -4 6 -19 26 -32 45 -13 19 -30 41 -37 48 -7 7 -13
16 -13 20 0 4 13 -7 28 -23 27 -30 37 -32 106 -27 14 2 17 8 14 27 -7 32 5 32
32 -2 13 -17 31 -27 47 -28 21 0 26 -5 29 -29 2 -16 12 -38 23 -49 17 -17 22
-18 36 -7 8 7 18 10 22 6 3 -3 1 -6 -5 -6 -6 0 -9 -7 -6 -15 4 -9 19 -15 40
-15 27 0 36 -6 49 -30 9 -16 20 -30 26 -30 5 0 22 -13 38 -29 16 -16 37 -31
47 -33 10 -2 20 -12 22 -23 8 -51 13 -63 34 -68 18 -5 19 -8 8 -22 -14 -17
-10 -25 15 -29 23 -3 104 -68 105 -83 0 -7 4 -13 10 -13 5 0 19 -18 30 -40 20
-39 35 -50 42 -30 2 6 13 2 25 -10 12 -11 34 -20 48 -20 20 0 29 -7 38 -30 6
-16 15 -30 19 -30 4 0 8 -17 8 -37 0 -28 -3 -34 -10 -23 -9 13 -10 13 -10 0 0
-8 9 -21 20 -28 18 -11 20 -10 20 8 0 17 7 20 39 20 22 0 42 6 44 13 4 7 8 3
12 -10 4 -13 11 -23 16 -23 5 0 9 -8 9 -18 0 -19 18 -42 33 -42 5 0 3 8 -4 18
-7 9 -10 14 -5 10 5 -4 18 4 29 19 l21 26 -27 19 c-31 22 -33 33 -12 54 13 14
16 13 22 -3 6 -15 60 -103 86 -138 4 -6 10 -5 17 5 7 11 5 18 -7 27 -9 7 -13
16 -9 20 4 4 11 1 16 -7 7 -11 12 -11 23 -2 7 7 18 8 22 4 5 -4 5 -2 1 5 -4 7
-13 10 -20 7 -22 -8 -28 13 -8 28 10 7 21 21 25 32 7 19 15 19 115 2 46 -8 54
-14 47 -37 -4 -10 -2 -19 2 -19 5 0 72 39 149 86 76 48 168 104 204 126 36 22
113 72 172 111 l107 72 1 958 0 957 -407 -1 -408 -1 -69 -77 c-39 -42 -195
-204 -349 -361 -153 -157 -282 -288 -285 -292 -24 -26 -285 -273 -290 -275 -4
-2 -47 35 -96 80 l-89 83 79 84 c43 46 228 235 411 419 183 185 331 337 329
338 -1 2 -2362 2 -5245 1 l-5242 -3 108 -116 c59 -63 146 -158 193 -210 47
-52 119 -130 160 -174 42 -44 117 -126 169 -182 l93 -103 -36 -43 c-44 -54
-126 -129 -136 -125 -10 4 -309 316 -340 355 -14 17 -52 66 -85 108 -33 42
-112 140 -175 218 -63 78 -137 173 -164 210 l-50 67 -438 0 -438 0 0 -968z
m5168 941 c-10 -2 -26 -2 -35 0 -10 3 -2 5 17 5 19 0 27 -2 18 -5z m2345 -10
c-7 -2 -19 -2 -25 0 -7 3 -2 5 12 5 14 0 19 -2 13 -5z m-3 -32 c15 -29 13 -31
-29 -31 -44 0 -65 18 -32 27 12 3 21 9 21 14 0 17 29 9 40 -10z m34 3 c23 -9
20 -23 -4 -17 -11 3 -20 9 -20 14 0 11 3 11 24 3z m-2377 -10 c-3 -3 -12 -4
-19 -1 -8 3 -5 6 6 6 11 1 17 -2 13 -5z m816 -41 c-13 -2 -33 -2 -45 0 -13 2
-3 4 22 4 25 0 35 -2 23 -4z m401 -150 c4 -87 16 -306 27 -486 10 -181 19
-358 19 -393 l0 -65 -67 3 -68 3 0 125 c0 152 25 940 31 958 2 6 14 12 28 12
l24 0 6 -157z m983 132 c8 -9 13 -19 9 -22 -3 -4 -12 -1 -18 5 -7 7 -27 12
-45 12 -18 0 -33 5 -33 10 0 16 70 12 87 -5z m-1527 -15 c0 -5 -7 -10 -16 -10
-8 0 -12 5 -9 10 3 6 10 10 16 10 5 0 9 -4 9 -10z m285 -48 l-30 -5 30 -7 30
-8 -35 -1 c-20 0 -42 -7 -48 -13 -9 -9 -54 -13 -145 -14 -73 -1 -105 1 -72 3
33 2 62 8 65 13 8 12 140 21 140 9 0 -5 6 -4 14 3 8 7 12 15 11 18 -2 4 13 6
33 7 33 0 34 0 7 -5z m175 -22 c0 -5 -15 -10 -32 -10 -25 0 -29 3 -18 10 20
13 50 13 50 0z m337 -26 c-3 -3 -12 -4 -19 -1 -8 3 -5 6 6 6 11 1 17 -2 13 -5z
m80 0 c-3 -3 -12 -4 -19 -1 -8 3 -5 6 6 6 11 1 17 -2 13 -5z m3042 -381 c10
-10 29 -26 42 -35 13 -10 19 -18 14 -18 -12 0 -93 69 -82 70 4 0 15 -8 26 -17z
m601 -503 c-13 -9 -13 -11 0 -20 9 -6 10 -10 3 -10 -6 0 -15 5 -18 10 -8 13 3
30 18 30 7 0 6 -4 -3 -10z m90 -110 c0 -5 -2 -10 -4 -10 -3 0 -8 5 -11 10 -3
6 -1 10 4 10 6 0 11 -4 11 -10z m21 -13 c-10 -9 -11 -8 -5 6 3 10 9 15 12 12
3 -3 0 -11 -7 -18z m44 -37 c-8 -12 12 -40 28 -40 7 0 7 4 -1 12 -7 7 -12 17
-12 22 0 22 25 -17 25 -39 1 -25 -5 -23 -43 13 -13 12 -10 42 3 42 4 0 3 -5 0
-10z m110 -90 c3 -5 1 -10 -4 -10 -6 0 -11 5 -11 10 0 6 2 10 4 10 3 0 8 -4
11 -10z m29 -71 c-3 -5 -10 -7 -15 -3 -5 3 -7 10 -3 15 3 5 10 7 15 3 5 -3 7
-10 3 -15z m-8659 1 c-3 -5 -10 -10 -16 -10 -5 0 -9 5 -9 10 0 6 7 10 16 10 8
0 12 -4 9 -10z m8706 1 c-12 -8 -12 -12 2 -26 10 -9 17 -28 17 -43 l0 -26 -30
29 c-16 16 -30 32 -30 36 0 12 30 39 43 39 8 0 7 -4 -2 -9z m84 -111 c3 -5 1
-10 -4 -10 -6 0 -11 5 -11 10 0 6 2 10 4 10 3 0 8 -4 11 -10z m-5625 -4 c0 -2
-7 -7 -16 -10 -8 -3 -12 -2 -9 4 6 10 25 14 25 6z m-3308 -48 c-7 -7 -12 -8
-12 -2 0 14 12 26 19 19 2 -3 -1 -11 -7 -17z m3105 -33 c0 -17 -13 -20 -21 -6
-4 5 0 12 6 14 7 3 13 6 14 6 0 1 1 -6 1 -14z m6079 -32 c-11 -11 -17 4 -9 23
7 18 8 18 11 1 2 -10 1 -21 -2 -24z m-6121 1 c-23 -17 -32 -18 -32 -1 0 6 12
13 26 14 24 1 25 1 6 -13z m-45 -13 c0 -5 -7 -12 -16 -15 -24 -9 -28 -7 -14 9
14 17 30 20 30 6z m-3124 -43 c-9 -5 -16 -13 -16 -19 0 -5 -10 -23 -22 -39
-22 -30 -38 -26 -38 10 0 12 2 12 9 2 6 -11 14 -6 30 17 12 17 20 31 16 31 -3
0 -4 4 0 10 3 5 13 6 21 3 15 -5 15 -7 0 -15z m3054 12 c0 -5 -5 -10 -11 -10
-5 0 -7 5 -4 10 3 6 8 10 11 10 2 0 4 -4 4 -10z m5054 -5 c-4 -8 -1 -15 6 -15
9 0 10 -3 1 -13 -6 -8 -8 -16 -5 -19 2 -3 -9 -17 -26 -31 -16 -14 -30 -30 -30
-36 0 -6 -4 -11 -10 -11 -5 0 -10 3 -10 8 1 13 27 42 39 42 6 0 11 4 11 9 0 5
-9 7 -20 4 -32 -8 -23 7 10 18 29 11 41 29 19 29 -8 0 -8 5 1 15 7 8 14 15 16
15 2 0 1 -7 -2 -15z m-730 -27 c27 1 13 -9 -21 -14 -48 -8 -142 -10 -137 -3 2
4 20 6 39 5 19 -2 35 0 35 5 0 10 32 18 50 11 8 -2 23 -4 34 -4z m-4434 -49
c-69 -44 -117 -65 -127 -55 -9 9 -32 -14 -28 -27 6 -17 -40 -48 -59 -41 -9 3
-14 10 -11 15 3 4 12 6 19 3 15 -6 40 21 32 34 -7 12 18 34 36 31 31 -4 58 2
72 16 8 8 18 15 23 15 4 1 22 12 38 25 17 14 39 25 50 25 13 0 -3 -15 -45 -41z
m4300 7 c0 -2 -7 -7 -16 -10 -8 -3 -12 -2 -9 4 6 10 25 14 25 6z m-7334 -63
c-11 -11 -19 6 -11 24 8 17 8 17 12 0 3 -10 2 -21 -1 -24z m1751 -5 c-3 -8 -6
-5 -6 6 -1 11 2 17 5 13 3 -3 4 -12 1 -19z m3057 -20 c4 -24 3 -38 -4 -38 -5
0 -10 19 -10 42 0 49 5 47 14 -4z m2451 32 c4 -6 -1 -7 -12 -3 -16 6 -17 5 -3
-13 9 -12 9 -15 1 -7 -7 6 -20 9 -27 6 -8 -3 -14 0 -14 5 0 9 15 16 42 21 4 0
10 -3 13 -9z m-7285 -35 c0 -8 -4 -15 -10 -15 -5 0 -10 7 -10 15 0 8 5 15 10
15 6 0 10 -7 10 -15z m1324 -11 c3 -8 2 -12 -4 -9 -6 3 -10 10 -10 16 0 14 7
11 14 -7z m5896 7 c0 -14 -18 -23 -31 -15 -8 4 -7 9 2 15 18 11 29 11 29 0z
m398 -2 c36 -1 37 -1 7 -8 -24 -5 -26 -8 -12 -13 12 -5 17 -19 17 -48 0 -38
-2 -40 -29 -40 -16 0 -31 -4 -33 -8 -1 -5 -15 -4 -30 2 -25 11 -26 12 -12 45
12 30 16 32 31 20 15 -12 16 -12 11 8 -5 17 -2 20 11 15 14 -5 14 -3 3 11 -8
9 -20 13 -29 10 -11 -4 -14 -3 -9 6 5 7 15 10 23 7 8 -3 31 -7 51 -7z m-3985
-6 c-7 -2 -19 -2 -25 0 -7 3 -2 5 12 5 14 0 19 -2 13 -5z m-1829 -19 c3 -8 2
-12 -4 -9 -6 3 -10 10 -10 16 0 14 7 11 14 -7z m1630 7 c3 -5 -1 -11 -9 -15
-9 -3 -15 0 -15 9 0 16 16 20 24 6z m89 -38 c-24 -19 -28 -16 -31 18 l-2 30
24 -18 c23 -16 23 -19 9 -30z m-133 8 c0 -10 7 -24 15 -31 20 -17 19 -25 -4
-27 -14 -1 -21 8 -29 38 -8 31 -7 39 4 39 8 0 14 -8 14 -19z m313 6 c4 3 7 1
7 -6 0 -8 -7 -11 -15 -7 -8 3 -15 1 -15 -4 0 -16 -27 -12 -33 4 -4 10 -1 13 9
9 7 -3 14 0 14 7 0 9 3 10 13 1 8 -6 17 -8 20 -4z m-873 -12 c-7 -8 -17 -15
-23 -15 -5 0 -17 -8 -26 -19 -9 -10 -27 -22 -41 -26 -20 -6 -16 0 20 33 25 23
53 41 64 42 15 0 16 -3 6 -15z m623 8 c-19 -7 -16 -23 5 -23 15 -1 15 -2 -2
-11 -14 -9 -20 -8 -27 2 -9 15 7 39 25 38 7 0 6 -2 -1 -6z m4237 -23 c0 -4 -9
-10 -20 -13 -15 -4 -20 0 -20 13 0 13 5 17 20 13 11 -3 20 -9 20 -13z m-6290
0 c0 -5 -4 -10 -10 -10 -5 0 -10 5 -10 10 0 6 5 10 10 10 6 0 10 -4 10 -10z
m4579 -10 c-6 -5 -18 -6 -26 -3 -19 8 -16 11 13 11 17 0 22 -3 13 -8z m1145
-53 c7 -5 4 -6 -8 -3 -13 5 -17 2 -13 -8 4 -10 1 -13 -9 -9 -11 4 -12 9 -5 16
17 17 13 27 -9 27 -23 0 -26 10 -8 28 10 10 15 6 27 -15 7 -16 19 -32 25 -36z
m351 43 c-10 -11 -21 -17 -24 -14 -3 3 3 12 13 20 28 20 32 17 11 -6z m-5130
-10 c3 -5 1 -10 -4 -10 -6 0 -11 5 -11 10 0 6 2 10 4 10 3 0 8 -4 11 -10z
m1384 -35 c0 -5 -4 -3 -9 5 -5 8 -10 11 -10 7 0 -5 -5 -5 -10 -2 -8 5 -7 12 2
22 11 13 13 13 19 -4 4 -10 8 -22 8 -28z m-4434 25 c3 -5 1 -10 -4 -10 -6 0
-11 5 -11 10 0 6 2 10 4 10 3 0 8 -4 11 -10z m287 -36 c-9 -16 -10 -14 -9 8 1
15 6 23 11 18 4 -4 4 -16 -2 -26z m1848 26 c8 -5 12 -11 10 -14 -3 -2 -14 2
-24 10 -22 15 -10 19 14 4z m47 4 c-3 -3 -12 -4 -19 -1 -8 3 -5 6 6 6 11 1 17
-2 13 -5z m6005 -16 c-6 -6 -15 -8 -19 -4 -4 4 -1 11 7 16 19 12 27 3 12 -12z
m-5082 -3 c-7 -9 -15 -13 -19 -10 -3 3 1 10 9 15 21 14 24 12 10 -5z m292 -17
c-7 -7 -12 -8 -12 -2 0 14 12 26 19 19 2 -3 -1 -11 -7 -17z m3336 -3 c-3 -3
-9 2 -12 12 -6 14 -5 15 5 6 7 -7 10 -15 7 -18z m-3593 -5 c7 -22 -1 -40 -17
-40 -6 0 -6 6 2 15 7 9 9 19 5 23 -4 4 -10 1 -12 -6 -3 -6 -9 -10 -14 -7 -9 6
10 34 23 35 4 0 9 -9 13 -20z m935 5 c0 -8 -6 -15 -13 -15 -8 0 -14 7 -14 15
0 8 6 15 14 15 7 0 13 -7 13 -15z m-1889 -12 c0 -5 2 -16 4 -26 2 -9 -1 -15
-6 -11 -5 3 -6 10 -3 16 5 7 1 9 -9 5 -11 -4 -14 -2 -10 9 5 15 22 20 24 7z
m1005 -7 c19 -15 19 -15 -3 -38 -28 -27 -47 -14 -37 26 7 30 13 32 40 12z
m4527 -6 c3 -11 10 -20 16 -20 6 0 8 8 5 18 -5 15 -4 15 8 1 7 -9 20 -14 28
-11 11 4 10 1 -3 -12 -9 -10 -21 -15 -26 -11 -6 3 -15 -3 -21 -12 -10 -15 -11
-15 -6 -1 2 9 -1 24 -9 34 -11 15 -15 16 -29 5 -10 -8 -16 -9 -16 -3 0 10 27
31 41 32 4 0 9 -9 12 -20z m566 -18 c-5 -2 -17 -1 -27 3 -13 5 -14 8 -3 15 8
5 19 3 26 -3 7 -7 9 -14 4 -15z m-1532 -14 c-3 -7 -5 -2 -5 12 0 14 2 19 5 13
2 -7 2 -19 0 -25z m1369 17 c25 -19 14 -19 -22 0 -16 8 -22 15 -13 15 8 0 24
-7 35 -15z m-4848 1 c-2 -1 -14 -10 -27 -21 -14 -11 -21 -14 -16 -6 4 8 3 16
-4 20 -7 4 2 8 19 8 16 0 29 -1 28 -1z m3426 -30 c-3 -15 -8 -25 -11 -23 -2 3
-1 17 3 31 3 15 8 25 11 23 2 -3 1 -17 -3 -31z m-4464 -1 c0 -8 -4 -15 -10
-15 -5 0 -10 7 -10 15 0 8 5 15 10 15 6 0 10 -7 10 -15z m980 8 c0 -5 4 -25 9
-46 l9 -38 -21 18 c-33 27 -36 35 -24 55 12 18 27 24 27 11z m4418 -18 c1 -14
-4 -25 -10 -25 -8 0 -7 -4 3 -12 8 -7 13 -12 10 -11 -2 1 -11 -7 -20 -19 -17
-21 -17 -21 -49 18 -18 21 -31 43 -29 49 2 5 21 13 43 16 21 3 41 7 44 8 3 0
7 -10 8 -24z m39 -7 c-3 -7 -5 -2 -5 12 0 14 2 19 5 13 2 -7 2 -19 0 -25z
m3196 -28 c-7 -8 -22 24 -16 34 4 5 10 1 13 -10 4 -10 6 -21 3 -24z m-8603 4
c0 -8 -5 -14 -11 -14 -8 0 -7 -6 2 -17 12 -16 12 -17 -2 -5 -13 10 -18 41 -10
60 3 9 21 -11 21 -24z m2204 0 c3 -8 2 -12 -4 -9 -6 3 -10 10 -10 16 0 14 7
11 14 -7z m-4916 -29 c-3 -3 -9 2 -12 12 -6 14 -5 15 5 6 7 -7 10 -15 7 -18z
m8372 -1 c0 -8 -5 -12 -10 -9 -6 4 -8 11 -5 16 9 14 15 11 15 -7z m3430 1 c-7
-8 -17 -15 -22 -15 -6 0 -5 7 2 15 7 8 17 15 22 15 6 0 5 -7 -2 -15z m70 0 c0
-2 -6 -5 -13 -8 -8 -3 -14 1 -14 8 0 7 6 11 14 8 7 -3 13 -6 13 -8z m-4770 -2
c0 -5 -9 -19 -20 -33 -16 -20 -19 -21 -14 -5 11 31 34 58 34 38z m4240 -24 c0
-11 -4 -17 -10 -14 -5 3 -10 13 -10 21 0 8 5 14 10 14 6 0 10 -9 10 -21z
m-3024 -10 c-14 -11 -24 -24 -22 -28 6 -9 -30 -41 -46 -41 -6 0 0 11 13 25 13
13 32 34 42 45 9 11 22 20 28 20 7 0 0 -9 -15 -21z m3454 -9 c0 -4 -9 -6 -21
-3 -15 4 -17 8 -8 14 14 8 29 3 29 -11z m-3300 -2 c0 -4 -4 -8 -9 -8 -6 0 -12
4 -15 8 -3 5 1 9 9 9 8 0 15 -4 15 -9z m-130 -8 c0 -5 -7 -10 -16 -10 -8 0
-12 5 -9 10 3 6 10 10 16 10 5 0 9 -4 9 -10z m2950 6 c0 -3 -4 -8 -10 -11 -5
-3 -10 -1 -10 4 0 6 5 11 10 11 6 0 10 -2 10 -4z m-11226 -17 c8 7 12 5 13 -9
1 -11 -2 -22 -8 -25 -5 -3 -6 1 -2 11 5 14 3 15 -17 4 -18 -10 -21 -9 -15 1 6
8 4 11 -7 7 -8 -4 -15 0 -15 7 0 11 5 11 19 4 13 -7 23 -7 32 0z m11656 1 c-7
-4 -10 -13 -6 -19 4 -7 1 -9 -8 -5 -26 10 -25 29 2 31 16 1 20 -2 12 -7z
m-11510 -33 c0 -7 -9 -18 -20 -25 -12 -7 -18 -17 -15 -22 3 -5 -6 -7 -21 -4
-16 3 -23 1 -19 -6 9 -15 -1 -12 -14 4 -10 12 -8 14 13 12 21 -3 26 1 26 20 0
13 8 27 17 33 20 11 33 6 33 -12z m3247 11 c-2 -7 3 -22 12 -33 16 -20 16 -20
-6 -2 -12 11 -19 25 -16 33 6 17 16 19 10 2z m5063 2 c0 -5 -2 -10 -4 -10 -3
0 -8 5 -11 10 -3 6 -1 10 4 10 6 0 11 -4 11 -10z m-5169 -31 c23 -12 16 -31
-8 -22 -13 5 -13 3 2 -21 10 -15 15 -29 13 -32 -9 -8 -46 58 -41 73 6 16 9 16
34 2z m3669 -29 c0 -5 -4 -10 -10 -10 -5 0 -10 5 -10 10 0 6 5 10 10 10 6 0
10 -4 10 -10z m-3497 -29 c4 0 7 -3 7 -6 0 -3 0 -9 0 -14 0 -10 -32 -7 -52 5
-7 4 -8 3 -4 -4 4 -7 2 -12 -3 -12 -12 0 -15 33 -5 43 3 3 16 2 28 -2 11 -5
24 -9 29 -10z m-133 -51 c0 -17 -29 -18 -42 -2 -12 15 -11 16 5 3 15 -12 17
-11 17 3 0 10 5 14 10 11 6 -3 10 -10 10 -15z"/>
<path d="M10670 11324 c0 -10 31 -36 37 -31 3 3 -2 13 -10 22 -16 15 -27 19
-27 9z"/>
<path d="M4085 10709 c-11 -16 -1 -19 13 -3 7 8 8 14 3 14 -5 0 -13 -5 -16
-11z"/>
<path d="M4926 12711 c-3 -5 -22 -12 -41 -15 -20 -4 -33 -11 -29 -17 4 -7 -7
-8 -30 -4 -29 6 -36 4 -36 -9 0 -9 8 -16 18 -16 15 0 15 2 2 11 -11 7 -5 8 21
3 22 -3 39 -2 43 5 4 6 24 11 45 11 30 0 40 4 44 20 4 15 0 20 -13 20 -11 0
-21 -4 -24 -9z"/>
<path d="M7744 12685 c-10 -8 -29 -15 -40 -15 -12 0 -24 -7 -28 -15 -3 -8 -2
-14 2 -14 31 5 62 -3 62 -16 0 -11 12 -15 49 -15 40 0 50 3 54 20 3 11 1 17
-4 14 -15 -9 -109 7 -109 18 0 6 11 8 28 4 18 -4 22 -4 13 3 -7 5 -10 14 -7
20 10 15 4 14 -20 -4z"/>
<path d="M7839 12665 c18 -8 41 -15 50 -15 9 1 -2 7 -24 15 -52 19 -70 18 -26
0z"/>
<path d="M4930 12660 c0 -5 7 -10 15 -10 8 0 15 5 15 10 0 6 -7 10 -15 10 -8
0 -15 -4 -15 -10z"/>
<path d="M7798 12653 c7 -3 16 -2 19 1 4 3 -2 6 -13 5 -11 0 -14 -3 -6 -6z"/>
<path d="M4836 12642 c6 -4 13 -15 17 -24 9 -24 27 -23 27 1 0 18 -18 31 -43
31 -8 0 -9 -3 -1 -8z"/>
<path d="M4588 12573 c7 -3 16 -2 19 1 4 3 -2 6 -13 5 -11 0 -14 -3 -6 -6z"/>
<path d="M5508 12533 c7 -3 16 -2 19 1 4 3 -2 6 -13 5 -11 0 -14 -3 -6 -6z"/>
<path d="M6968 12533 c7 -3 16 -2 19 1 4 3 -2 6 -13 5 -11 0 -14 -3 -6 -6z"/>
<path d="M7030 12530 c19 -13 30 -13 30 0 0 6 -10 10 -22 10 -19 0 -20 -2 -8
-10z"/>
<path d="M7100 12520 c-19 -5 -10 -8 35 -11 33 -3 62 -4 64 -2 16 11 -66 22
-99 13z"/>
<path d="M4348 12493 c7 -3 16 -2 19 1 4 3 -2 6 -13 5 -11 0 -14 -3 -6 -6z"/>
<path d="M10850 11171 c0 -6 5 -13 10 -16 6 -3 10 1 10 9 0 9 -4 16 -10 16 -5
0 -10 -4 -10 -9z"/>
<path d="M10860 11101 c0 -6 4 -13 10 -16 6 -3 7 1 4 9 -7 18 -14 21 -14 7z"/>
<path d="M9732 10983 c-12 -15 -20 -28 -19 -29 8 -8 46 10 52 24 11 29 -11 32
-33 5z"/>
<path d="M2515 10877 c-132 -135 -149 -155 -257 -302 -103 -140 -119 -168
-107 -185 9 -13 10 -13 8 0 -1 8 -1 20 0 26 1 15 39 25 47 13 10 -17 23 -9 27
19 3 19 4 14 6 -15 0 -24 -3 -43 -9 -43 -5 0 -10 -5 -10 -11 0 -5 5 -7 10 -4
6 3 10 1 10 -4 0 -6 16 -11 36 -11 31 0 64 -18 64 -34 0 -3 -13 -6 -30 -6 -32
0 -37 -9 -18 -28 16 -16 28 -15 28 3 0 8 5 15 10 15 6 0 10 -9 10 -20 0 -16 7
-20 30 -20 29 0 30 2 30 45 l0 45 40 0 c37 0 40 2 40 28 0 20 9 33 37 51 24
15 38 20 41 12 2 -6 21 -11 43 -11 37 0 39 2 39 30 0 28 2 30 40 30 22 0 40
-4 40 -10 0 -18 18 -10 23 10 3 11 10 20 17 20 7 0 14 -9 17 -20 7 -25 23 -26
23 -2 0 9 9 23 20 30 11 7 20 17 20 22 0 6 -9 10 -20 10 -11 0 -20 6 -20 14 0
18 31 30 40 16 4 -7 17 -1 33 16 15 15 28 22 28 15 1 -6 2 -16 3 -23 1 -16 23
-21 31 -8 4 6 0 19 -9 29 -9 10 -13 21 -9 25 5 4 -1 6 -12 4 -15 -2 -20 3 -22
22 l-2 25 8 -25 c7 -22 9 -23 16 -7 9 21 27 23 19 2 -4 -11 -2 -13 9 -9 8 3
18 0 23 -7 4 -7 3 -10 -4 -5 -13 8 -26 -10 -17 -24 5 -8 11 -8 20 0 11 9 12 4
5 -23 -5 -24 -4 -34 5 -34 8 0 11 7 8 16 -4 10 2 8 16 -6 12 -13 24 -23 28
-23 7 0 -16 31 -36 48 -8 6 -10 12 -5 12 19 0 76 -71 70 -86 -4 -11 -2 -12 14
-4 27 14 34 12 20 -5 -10 -12 -9 -15 5 -15 14 0 13 -7 -11 -47 -33 -57 -49
-74 -59 -65 -5 4 -5 2 -1 -5 10 -19 -15 -54 -30 -42 -9 8 -11 4 -7 -13 3 -16
2 -19 -5 -10 -7 11 -10 10 -16 -3 -3 -9 -4 -20 -1 -25 3 -4 -10 -21 -27 -36
-18 -15 -25 -25 -15 -21 16 6 16 3 -3 -23 -12 -17 -23 -38 -24 -46 -1 -8 -10
-24 -20 -36 -22 -25 -60 -88 -54 -88 4 0 22 26 130 189 16 24 27 50 24 57 -3
8 0 13 6 11 11 -2 126 158 127 177 1 5 9 15 19 22 16 12 14 16 -18 41 -19 16
-132 126 -250 245 l-215 218 -120 -123z m110 40 c6 -5 -1 -5 -14 -2 -19 6 -23
4 -18 -9 4 -9 2 -16 -3 -16 -6 0 -10 6 -10 13 0 17 22 39 29 29 3 -4 11 -10
16 -15z m35 17 c0 -8 -19 -13 -24 -6 -3 5 1 9 9 9 8 0 15 -2 15 -3z m-87 -70
c-7 -18 -12 -13 -18 16 -3 18 -2 20 10 10 8 -6 11 -18 8 -26z m-14 -48 c0 -20
-1 -20 -8 -2 -5 14 -10 16 -15 8 -4 -7 -13 -12 -19 -12 -7 0 -4 7 7 15 12 9
16 21 12 32 -5 16 -4 16 9 -1 8 -11 15 -29 14 -40z m206 34 c3 -5 1 -10 -4
-10 -6 0 -11 5 -11 10 0 6 2 10 4 10 3 0 8 -4 11 -10z m0 -38 c-3 -3 -11 0
-18 7 -9 10 -8 11 6 5 10 -3 15 -9 12 -12z m-362 -87 c-3 -9 -8 -14 -10 -11
-3 3 -2 9 2 15 9 16 15 13 8 -4z m488 -2 c13 -16 12 -17 -3 -4 -17 13 -22 21
-14 21 2 0 10 -8 17 -17z m-521 -53 c0 -5 -5 -10 -11 -10 -5 0 -7 5 -4 10 3 6
8 10 11 10 2 0 4 -4 4 -10z m-74 -98 c-18 -16 -18 -16 -6 6 6 13 14 21 18 18
3 -4 -2 -14 -12 -24z m21 -49 c-3 -10 -5 -2 -5 17 0 19 2 27 5 18 2 -10 2 -26
0 -35z m-41 -40 c-10 -10 -19 5 -10 18 6 11 8 11 12 0 2 -7 1 -15 -2 -18z
m-58 -7 c-7 -8 -17 -12 -22 -9 -4 3 -2 9 5 14 22 13 31 11 17 -5z"/>
<path d="M11032 10940 c0 -14 2 -19 5 -12 2 6 2 18 0 25 -3 6 -5 1 -5 -13z"/>
<path d="M9680 10940 c0 -5 5 -10 11 -10 5 0 7 5 4 10 -3 6 -8 10 -11 10 -2 0
-4 -4 -4 -10z"/>
<path d="M9723 10933 c-7 -2 -13 -10 -13 -16 0 -8 4 -7 12 1 7 7 16 12 20 12
15 0 8 -23 -13 -41 -11 -9 -20 -20 -20 -23 2 -18 0 -19 -10 -6 -9 13 -10 12
-5 -2 3 -11 -2 -19 -15 -23 -10 -4 -19 -11 -19 -16 0 -5 -8 -9 -17 -10 -10 0
-13 -3 -6 -6 8 -3 3 -13 -15 -28 -15 -13 -25 -26 -22 -29 3 -2 43 32 88 78 60
60 81 87 76 99 -6 17 -18 20 -41 10z"/>
<path d="M9966 10900 c-20 -22 -38 -40 -40 -40 -2 0 -35 -32 -73 -72 -37 -39
-93 -95 -123 -125 -30 -29 -55 -60 -55 -70 0 -9 -7 -18 -15 -20 -13 -4 -13 -3
0 6 8 5 11 13 7 17 -4 4 -17 -2 -30 -13 -12 -11 -31 -25 -42 -31 -20 -11 -19
-11 2 -12 12 0 25 5 28 10 4 6 10 8 14 5 5 -2 17 2 27 10 10 8 27 15 36 15 9
0 20 5 24 11 4 8 0 9 -15 4 -26 -8 -27 -1 -1 25 12 12 26 18 32 14 7 -4 8 -3
4 4 -4 7 3 14 16 17 13 3 28 16 33 28 6 12 19 23 30 24 17 3 17 2 -2 -7 -28
-12 -29 -21 -3 -40 11 -8 20 -21 21 -30 0 -10 2 -11 6 -2 2 6 9 12 15 12 6 0
7 -7 4 -15 -3 -9 1 -18 8 -21 8 -3 12 -14 9 -25 -6 -21 12 -27 21 -6 5 10 7
10 12 0 3 -7 23 -13 45 -13 32 0 39 -3 39 -20 0 -17 7 -20 39 -20 29 0 41 -5
45 -17 3 -10 4 -1 3 19 -3 33 0 37 18 34 19 -4 20 0 17 70 -4 76 3 89 27 55
12 -16 18 -17 33 -8 16 10 22 9 32 -5 8 -11 16 -14 22 -8 6 6 23 -5 46 -30 19
-22 29 -40 22 -40 -7 0 -16 -5 -20 -11 -5 -8 1 -10 20 -7 23 5 26 3 20 -16 -4
-11 -3 -18 2 -13 4 4 18 -3 31 -15 13 -12 23 -18 23 -14 0 8 -55 90 -75 112
-5 6 -21 25 -35 43 -13 18 -48 57 -76 86 -28 29 -53 56 -55 61 -5 12 -124 124
-131 124 -3 0 -22 -18 -42 -40z m10 -39 c-31 -33 -34 -46 -6 -31 12 6 26 23
32 38 9 22 12 23 15 10 3 -10 10 -18 17 -18 19 0 59 -47 47 -55 -6 -3 -11 -1
-11 4 0 21 -25 11 -49 -19 -18 -24 -31 -30 -61 -30 -44 0 -63 26 -34 47 10 7
14 13 8 13 -5 0 -18 -7 -29 -16 -14 -11 -17 -17 -8 -22 7 -4 14 -19 15 -32 3
-21 -1 -23 -41 -26 l-45 -2 33 15 c26 13 31 21 27 39 -5 18 6 34 51 79 32 31
59 51 61 45 2 -6 -8 -24 -22 -39z m134 -87 c0 -8 -4 -12 -10 -9 -5 3 -10 10
-10 16 0 5 5 9 10 9 6 0 10 -7 10 -16z m-153 -30 c-3 -3 -12 -4 -19 -1 -8 3
-5 6 6 6 11 1 17 -2 13 -5z m211 -23 c4 -12 -20 -14 -55 -5 -13 4 -21 10 -18
14 7 12 69 4 73 -9z m-251 -17 c-3 -3 -12 -4 -19 -1 -8 3 -5 6 6 6 11 1 17 -2
13 -5z"/>
<path d="M9890 10740 c0 -5 5 -10 10 -10 6 0 10 5 10 10 0 6 -4 10 -10 10 -5
0 -10 -4 -10 -10z"/>
<path d="M6615 10870 c-3 -5 -1 -10 4 -10 6 0 11 5 11 10 0 6 -2 10 -4 10 -3
0 -8 -4 -11 -10z"/>
<path d="M7372 10846 c-2 -11 -3 -33 -4 -48 -1 -17 -5 -25 -14 -21 -15 6 -38
-33 -30 -53 3 -8 2 -13 -3 -10 -5 3 -11 -12 -15 -35 -4 -28 -10 -38 -19 -33
-6 4 -9 3 -4 -1 4 -5 0 -19 -8 -32 -9 -13 -11 -23 -7 -23 9 0 30 37 105 174
26 49 36 76 17 46 -5 -8 -10 -10 -10 -5 0 13 20 43 20 30 0 -10 20 15 20 25 0
3 -10 6 -23 6 -16 1 -23 -4 -25 -20z"/>
<path d="M11040 10864 c0 -15 48 -69 55 -62 4 3 -7 21 -24 39 -17 17 -31 28
-31 23z"/>
<path d="M6656 10852 c-8 -14 5 -131 15 -138 10 -6 13 30 9 86 -2 41 -14 67
-24 52z"/>
<path d="M6697 10853 c-11 -10 -8 -53 3 -53 6 0 10 14 10 30 0 31 -2 35 -13
23z"/>
<path d="M6560 10840 c0 -5 5 -10 10 -10 6 0 10 5 10 10 0 6 -4 10 -10 10 -5
0 -10 -4 -10 -10z"/>
<path d="M1436 10815 c-23 -36 -42 -55 -52 -55 -5 0 -3 5 4 12 18 18 15 28 -8
28 -23 0 -28 -34 -7 -44 10 -5 10 -7 0 -12 -7 -3 -13 -10 -13 -16 0 -5 13 1
29 14 16 12 39 30 51 40 14 10 20 24 18 39 -3 23 -3 23 -22 -6z"/>
<path d="M6574 10752 c-1 -47 1 -58 6 -37 4 17 8 44 9 62 0 17 7 34 14 36 6 3
3 6 -8 6 -18 1 -20 -6 -21 -67z"/>
<path d="M6022 10775 c0 -16 2 -22 5 -12 2 9 2 23 0 30 -3 6 -5 -1 -5 -18z"/>
<path d="M7120 10780 c0 -23 10 -26 28 -8 18 18 15 28 -8 28 -13 0 -20 -7 -20
-20z"/>
<path d="M11103 10793 c-15 -5 -17 -23 -4 -23 5 0 11 7 15 15 3 8 4 15 3 14
-1 0 -8 -3 -14 -6z"/>
<path d="M5944 10777 c-6 -16 13 -187 21 -196 4 -3 3 17 0 44 -4 28 -7 76 -8
107 -2 60 -4 67 -13 45z"/>
<path d="M6702 10765 c0 -16 2 -22 5 -12 2 9 2 23 0 30 -3 6 -5 -1 -5 -18z"/>
<path d="M1451 10754 c-12 -14 -11 -16 4 -12 10 1 20 9 23 16 5 17 -10 15 -27
-4z"/>
<path d="M9566 10734 c-9 -22 3 -32 14 -14 12 19 12 30 1 30 -5 0 -12 -7 -15
-16z"/>
<path d="M3255 10730 c-3 -5 1 -10 9 -10 9 0 16 5 16 10 0 6 -4 10 -9 10 -6 0
-13 -4 -16 -10z"/>
<path d="M9522 10710 c-7 -12 -10 -24 -8 -29 3 -4 -6 -14 -19 -21 -14 -7 -25
-20 -25 -27 0 -12 2 -12 14 -1 8 8 29 27 47 43 21 17 29 30 21 32 -6 3 -10 9
-6 14 3 5 1 9 -3 9 -5 0 -14 -9 -21 -20z m10 -22 c-7 -7 -12 -8 -12 -2 0 14
12 26 19 19 2 -3 -1 -11 -7 -17z"/>
<path d="M1281 10704 c0 -11 3 -14 6 -6 3 7 2 16 -1 19 -3 4 -6 -2 -5 -13z"/>
<path d="M5401 10704 c0 -11 3 -14 6 -6 3 7 2 16 -1 19 -3 4 -6 -2 -5 -13z"/>
<path d="M5421 10704 c0 -11 3 -14 6 -6 3 7 2 16 -1 19 -3 4 -6 -2 -5 -13z"/>
<path d="M5690 10710 c0 -5 7 -7 15 -4 8 4 15 8 15 10 0 2 -7 4 -15 4 -8 0
-15 -4 -15 -10z"/>
<path d="M6431 10704 c0 -11 3 -14 6 -6 3 7 2 16 -1 19 -3 4 -6 -2 -5 -13z"/>
<path d="M9450 10710 c0 -5 5 -10 11 -10 5 0 7 5 4 10 -3 6 -8 10 -11 10 -2 0
-4 -4 -4 -10z"/>
<path d="M940 10695 c0 -8 5 -15 10 -15 6 0 10 7 10 15 0 8 -4 15 -10 15 -5 0
-10 -7 -10 -15z"/>
<path d="M1233 10683 c-17 -36 -13 -36 15 -2 15 19 19 29 10 29 -7 0 -19 -12
-25 -27z"/>
<path d="M1362 10699 c2 -6 8 -10 13 -10 5 0 11 4 13 10 2 6 -4 11 -13 11 -9
0 -15 -5 -13 -11z"/>
<path d="M3460 10700 c0 -5 8 -14 18 -19 15 -9 15 -12 2 -21 -12 -8 -9 -10 13
-10 l28 0 -21 30 c-21 29 -40 39 -40 20z"/>
<path d="M1055 10690 c-3 -5 1 -10 9 -10 9 0 16 5 16 10 0 6 -4 10 -9 10 -6 0
-13 -4 -16 -10z"/>
<path d="M6651 10643 c1 -65 5 -61 12 10 2 26 1 47 -4 47 -5 0 -9 -26 -8 -57z"/>
<path d="M5690 10670 c6 -11 13 -20 16 -20 2 0 0 9 -6 20 -6 11 -13 20 -16 20
-2 0 0 -9 6 -20z"/>
<path d="M6841 10674 c0 -11 3 -14 6 -6 3 7 2 16 -1 19 -3 4 -6 -2 -5 -13z"/>
<path d="M840 10665 c0 -9 12 -20 26 -25 32 -12 34 -12 34 0 0 6 -6 10 -14 10
-8 0 -16 7 -20 15 -7 20 -26 19 -26 0z"/>
<path d="M1256 10664 c-22 -21 -20 -27 4 -12 11 7 20 16 20 20 0 12 -7 10 -24
-8z"/>
<path d="M6900 10658 c0 -14 -5 -39 -11 -57 -6 -18 -9 -34 -6 -37 3 -3 12 18
21 48 10 34 12 56 6 62 -7 7 -10 1 -10 -16z"/>
<path d="M6811 10654 c0 -11 3 -14 6 -6 3 7 2 16 -1 19 -3 4 -6 -2 -5 -13z"/>
<path d="M4196 10626 c-13 -21 -14 -26 -2 -26 21 0 41 29 29 41 -7 7 -16 2
-27 -15z"/>
<path d="M5791 10645 c0 -5 8 -28 19 -50 11 -22 19 -34 20 -27 0 7 -5 22 -11
33 -8 15 -7 25 3 37 11 15 11 16 -4 4 -13 -10 -17 -10 -21 0 -3 7 -6 9 -6 3z"/>
<path d="M10223 10642 c-27 -4 -28 -8 -9 -27 12 -12 15 -11 20 8 5 17 8 19 15
8 5 -8 7 -20 4 -28 -3 -7 0 -13 6 -13 15 0 14 47 -1 52 -7 2 -23 2 -35 0z"/>
<path d="M5071 10633 c-1 -6 -4 -20 -7 -30 -5 -17 -5 -17 6 0 6 10 9 23 6 30
-3 9 -5 9 -5 0z"/>
<path d="M6432 10620 c0 -14 2 -19 5 -12 2 6 2 18 0 25 -3 6 -5 1 -5 -13z"/>
<path d="M819 10625 c-1 -3 -3 -9 -4 -15 -1 -5 -3 -11 -5 -12 -9 -12 -5 -38 6
-38 9 0 14 12 14 35 0 29 -7 48 -11 30z"/>
<path d="M5710 10615 c7 -9 15 -13 17 -11 7 7 -7 26 -19 26 -6 0 -6 -6 2 -15z"/>
<path d="M9420 10611 c0 -5 7 -14 15 -21 8 -6 13 -17 12 -23 -1 -7 3 -11 10
-10 6 2 15 -6 18 -17 4 -11 11 -20 16 -20 12 0 13 -2 -15 53 -13 26 -27 41
-29 35 -4 -10 -6 -10 -6 0 -1 13 -21 17 -21 3z"/>
<path d="M840 10590 c0 -11 4 -20 9 -20 5 0 7 9 4 20 -3 11 -7 20 -9 20 -2 0
-4 -9 -4 -20z"/>
<path d="M3650 10595 c0 -8 5 -15 10 -15 6 0 10 7 10 15 0 8 -4 15 -10 15 -5
0 -10 -7 -10 -15z"/>
<path d="M4220 10595 c-7 -9 -11 -18 -8 -20 3 -3 11 1 18 10 7 9 11 18 8 20
-3 3 -11 -1 -18 -10z"/>
<path d="M5086 10583 c-6 -14 -5 -15 5 -6 7 7 10 15 7 18 -3 3 -9 -2 -12 -12z"/>
<path d="M9823 10582 c0 -12 5 -22 9 -22 11 0 10 12 -2 30 -7 12 -9 10 -7 -8z"/>
<path d="M9848 10593 c7 -3 16 -2 19 1 4 3 -2 6 -13 5 -11 0 -14 -3 -6 -6z"/>
<path d="M5730 10581 c0 -6 4 -13 10 -16 6 -3 7 1 4 9 -7 18 -14 21 -14 7z"/>
<path d="M6785 10535 c-9 -31 -15 -58 -13 -60 2 -3 12 20 22 51 10 31 16 58
13 60 -2 2 -12 -21 -22 -51z"/>
<path d="M4400 10570 c0 -5 10 -10 23 -10 18 0 19 2 7 10 -19 13 -30 13 -30 0z"/>
<path d="M7236 10544 c-9 -20 -15 -38 -13 -41 3 -2 12 13 22 32 9 20 15 38 13
41 -3 2 -12 -13 -22 -32z"/>
<path d="M9735 10570 c-3 -5 -2 -10 4 -10 5 0 13 5 16 10 3 6 2 10 -4 10 -5 0
-13 -4 -16 -10z"/>
<path d="M5975 10520 c2 -30 8 -68 14 -85 10 -27 10 -25 5 15 -4 25 -10 63
-15 85 -7 36 -7 34 -4 -15z"/>
<path d="M1300 10550 c0 -5 7 -10 16 -10 8 0 12 5 9 10 -3 6 -10 10 -16 10 -5
0 -9 -4 -9 -10z"/>
<path d="M3212 10556 c2 -1 14 -10 28 -21 17 -14 21 -15 12 -3 -10 13 -10 17
0 21 7 2 0 4 -15 4 -15 0 -27 0 -25 -1z"/>
<path d="M4285 10550 c-8 -13 5 -13 25 0 13 8 13 10 -2 10 -9 0 -20 -4 -23
-10z"/>
<path d="M5435 10530 c19 -36 24 -38 18 -6 -3 14 -11 27 -19 30 -12 5 -12 0 1
-24z"/>
<path d="M6551 10544 c0 -11 3 -14 6 -6 3 7 2 16 -1 19 -3 4 -6 -2 -5 -13z"/>
<path d="M7680 10550 c0 -5 9 -10 20 -10 11 0 20 5 20 10 0 6 -9 10 -20 10
-11 0 -20 -4 -20 -10z"/>
<path d="M10160 10520 c0 -29 4 -40 15 -40 11 0 15 11 15 40 0 29 -4 40 -15
40 -11 0 -15 -11 -15 -40z"/>
<path d="M5162 10523 c17 -41 30 -53 17 -15 -6 18 -15 35 -20 38 -5 3 -4 -7 3
-23z"/>
<path d="M8480 10526 c-5 -14 -16 -26 -24 -26 -10 0 -13 6 -10 15 4 8 11 15
17 15 6 0 8 2 5 5 -8 9 -38 -6 -38 -19 0 -26 22 -35 46 -19 13 8 21 19 18 24
-3 5 -2 8 3 7 4 -2 9 1 11 7 8 23 -19 14 -28 -9z"/>
<path d="M765 10531 c-3 -5 -1 -12 5 -16 5 -3 10 1 10 9 0 18 -6 21 -15 7z"/>
<path d="M4316 10515 c7 -30 20 -45 39 -45 6 0 3 5 -5 11 -11 8 -12 12 -2 16
17 7 15 26 -3 19 -8 -3 -19 3 -25 12 -8 13 -9 10 -4 -13z"/>
<path d="M6051 10524 c0 -11 3 -14 6 -6 3 7 2 16 -1 19 -3 4 -6 -2 -5 -13z"/>
<path d="M12748 10506 c-26 -18 -44 -37 -40 -41 4 -5 1 -5 -6 -1 -12 7 -172
-80 -337 -184 -50 -32 -131 -78 -182 -103 -97 -49 -112 -61 -87 -71 8 -3 13
-10 10 -15 -3 -5 9 -8 28 -8 24 1 32 5 28 15 -4 11 -6 11 -13 1 -4 -8 -11 -10
-15 -7 -3 4 1 14 10 23 9 9 16 12 16 6 0 -6 18 -11 43 -10 23 1 33 3 22 6 -37
9 -40 23 -7 29 17 4 30 10 27 14 -6 9 53 22 66 14 5 -3 6 2 3 10 -4 11 0 16
10 16 9 0 21 9 28 20 7 11 18 20 25 20 12 0 36 34 28 41 -2 2 8 10 21 16 22
10 24 10 13 -3 -19 -23 -4 -26 24 -4 14 11 35 18 49 16 12 -2 30 0 38 4 8 4
42 9 75 12 l60 4 -4 -43 c-1 -24 -7 -43 -12 -43 -5 0 -9 -13 -9 -30 0 -59 -55
-52 -83 10 l-11 25 -4 -30 c-2 -16 1 -31 7 -33 6 -2 11 -12 11 -23 0 -14 7
-19 30 -19 23 0 30 -4 30 -20 0 -11 -4 -20 -10 -20 -5 0 -10 -5 -10 -11 0 -6
22 -9 58 -8 l57 3 3 -82 3 -82 -61 0 c-59 0 -60 0 -60 -29 0 -28 1 -28 50 -23
31 3 55 0 64 -7 11 -10 16 -8 24 5 7 13 12 0 22 -57 7 -41 14 -78 15 -84 2 -5
4 176 4 403 0 226 -1 412 -2 412 -1 0 -23 -15 -49 -34z m34 -3 c-6 -2 -10 -9
-6 -14 3 -5 1 -9 -5 -9 -5 0 -12 4 -15 9 -6 9 10 19 29 19 6 0 4 -2 -3 -5z
m-67 -93 c-3 -5 -12 -10 -18 -10 -7 0 -6 4 3 10 19 12 23 12 15 0z m59 -127
c-6 -32 -8 -34 -11 -13 -8 51 -14 56 -28 25 l-13 -30 -1 27 c-1 16 8 36 21 48
23 21 23 21 32 1 4 -11 5 -37 0 -58z m-214 55 c0 -12 -22 -21 -29 -11 -3 6
-13 13 -21 16 -8 3 0 4 17 4 18 -1 33 -5 33 -9z m-170 -73 c-7 -8 -18 -15 -24
-15 -6 0 -2 7 8 15 25 19 32 19 16 0z m330 -75 c0 -43 -3 -50 -20 -50 -11 0
-20 5 -20 10 0 6 5 10 10 10 6 0 10 18 10 40 0 22 5 40 10 40 6 0 10 -22 10
-50z m-410 26 c0 -3 -4 -8 -10 -11 -5 -3 -10 -1 -10 4 0 6 5 11 10 11 6 0 10
-2 10 -4z m-35 -26 c-3 -5 -16 -10 -28 -9 -21 0 -21 1 -2 9 28 12 37 12 30 0z
m493 -172 l-2 -103 -5 85 c-6 80 -4 120 5 120 2 0 3 -46 2 -102z"/>
<path d="M3726 10514 c-4 -10 -1 -14 6 -12 15 5 23 28 10 28 -5 0 -13 -7 -16
-16z"/>
<path d="M8782 10500 c-8 -13 -8 -20 -2 -20 6 0 13 7 17 15 9 24 -1 27 -15 5z"/>
<path d="M0 10324 c0 -144 3 -185 13 -182 6 3 13 14 15 26 2 12 8 22 13 22 5
0 9 7 9 17 0 15 1 15 18 -1 18 -15 20 -15 37 4 13 14 22 17 36 10 16 -9 17 -5
12 55 -4 51 -2 65 9 65 8 0 20 -6 27 -12 11 -10 14 -10 18 0 7 18 22 15 22 -5
1 -33 13 -83 21 -83 10 0 17 28 16 63 -1 15 3 27 9 27 5 0 3 5 -5 11 -13 9
-13 10 0 6 8 -2 14 -10 13 -16 -2 -6 6 -11 17 -11 12 0 35 -7 53 -16 l32 -17
-25 -9 c-13 -5 -30 -6 -37 -4 -8 3 -13 -2 -13 -13 0 -18 2 -18 41 2 l40 20 87
-45 c89 -46 122 -51 122 -18 0 11 9 34 20 52 11 18 20 38 20 43 0 18 -49 -69
-50 -87 0 -10 -5 -18 -11 -18 -15 0 -226 109 -411 212 -87 48 -160 88 -163 88
-3 0 -5 -84 -5 -186z m106 93 c2 -2 -9 -4 -26 -5 -16 0 -30 3 -30 7 0 8 48 6
56 -2z m-6 -62 c0 -8 9 -15 21 -15 18 0 20 -5 17 -47 l-3 -48 -42 -3 c-44 -3
-54 6 -28 28 9 8 15 30 15 56 0 24 5 44 10 44 6 0 10 -7 10 -15z"/>
<path d="M4295 10500 c3 -5 8 -10 11 -10 2 0 4 5 4 10 0 6 -5 10 -11 10 -5 0
-7 -4 -4 -10z"/>
<path d="M6851 10494 c0 -11 3 -14 6 -6 3 7 2 16 -1 19 -3 4 -6 -2 -5 -13z"/>
<path d="M6433 10450 c0 -30 2 -43 4 -27 2 15 2 39 0 55 -2 15 -4 2 -4 -28z"/>
<path d="M9640 10495 c0 -5 21 -39 46 -75 25 -36 72 -105 105 -155 60 -90 72
-103 44 -48 -12 24 -13 37 -5 59 14 35 -4 59 -24 32 -12 -16 -13 -16 -27 1
-18 22 -33 47 -59 91 -24 43 -79 109 -80 95z m186 -201 c-3 -9 -6 -21 -6 -27
0 -8 -3 -8 -10 -1 -12 12 -3 44 12 44 6 0 7 -7 4 -16z"/>
<path d="M5473 10484 c-8 -4 7 -42 44 -115 31 -60 58 -107 61 -105 2 3 -3 17
-10 33 -8 15 -26 50 -39 78 -13 27 -30 56 -37 64 -8 8 -11 22 -9 32 3 11 4 19
4 18 -1 0 -7 -3 -14 -5z"/>
<path d="M8412 10479 c1 -8 -17 -34 -42 -58 l-45 -44 53 44 c54 44 64 60 42
67 -6 2 -10 -2 -8 -9z"/>
<path d="M4364 10459 c-19 -22 -19 -22 4 -8 12 8 22 17 22 21 0 12 -6 9 -26
-13z"/>
<path d="M6542 10455 c0 -16 2 -22 5 -12 2 9 2 23 0 30 -3 6 -5 -1 -5 -18z"/>
<path d="M11760 10470 c0 -5 5 -10 11 -10 5 0 7 5 4 10 -3 6 -8 10 -11 10 -2
0 -4 -4 -4 -10z"/>
<path d="M12098 10473 c10 -4 10 -8 0 -21 -11 -13 -10 -14 9 -4 33 18 34 27 5
28 -15 1 -21 -1 -14 -3z"/>
<path d="M3243 10458 c-15 -20 -25 -38 -20 -38 3 0 12 11 21 25 17 26 16 35
-1 13z"/>
<path d="M8660 10456 c0 -2 8 -10 18 -17 15 -13 16 -12 3 4 -13 16 -21 21 -21
13z"/>
<path d="M11870 10440 c-11 -7 -12 -12 -3 -21 13 -13 33 -4 33 17 0 16 -9 18
-30 4z"/>
<path d="M4360 10420 c0 -5 5 -10 10 -10 6 0 10 5 10 10 0 6 -4 10 -10 10 -5
0 -10 -4 -10 -10z"/>
<path d="M6751 10414 c0 -11 3 -14 6 -6 3 7 2 16 -1 19 -3 4 -6 -2 -5 -13z"/>
<path d="M9256 10414 c-11 -29 -7 -76 7 -71 6 2 11 12 11 21 -1 9 2 16 6 16 5
0 7 8 5 18 -2 9 -4 20 -4 25 -2 13 -19 7 -25 -9z"/>
<path d="M5892 10400 c0 -14 2 -19 5 -12 2 6 2 18 0 25 -3 6 -5 1 -5 -13z"/>
<path d="M10240 10410 c0 -5 9 -10 20 -10 11 0 20 5 20 10 0 6 -9 10 -20 10
-11 0 -20 -4 -20 -10z"/>
<path d="M11965 10400 c4 -6 11 -8 16 -5 14 9 11 15 -7 15 -8 0 -12 -5 -9 -10z"/>
<path d="M12010 10400 c-9 -6 -10 -10 -3 -10 6 0 15 5 18 10 8 12 4 12 -15 0z"/>
<path d="M5230 10394 c0 -5 7 -18 15 -28 8 -11 15 -16 15 -10 0 5 -7 18 -15
28 -8 11 -15 16 -15 10z"/>
<path d="M706 10373 c-4 -9 -3 -20 1 -24 4 -4 9 3 9 17 2 28 -1 31 -10 7z"/>
<path d="M3890 10374 c0 -3 6 -12 14 -19 12 -12 15 -12 20 1 3 8 2 12 -4 9 -6
-3 -10 -1 -10 4 0 6 -4 11 -10 11 -5 0 -10 -3 -10 -6z"/>
<path d="M8820 10369 c0 -5 5 -7 10 -4 6 3 10 8 10 11 0 2 -4 4 -10 4 -5 0
-10 -5 -10 -11z"/>
<path d="M9360 10368 c0 -4 7 -8 16 -8 14 0 14 -3 3 -16 -10 -13 -10 -17 0
-24 11 -6 11 -9 0 -16 -7 -4 -14 -3 -17 4 -6 18 -82 15 -82 -3 0 -11 -11 -15
-40 -15 l-40 0 0 -42 c-1 -38 -2 -41 -14 -25 -14 18 -46 23 -46 7 0 -6 9 -18
20 -27 11 -10 20 -21 20 -26 0 -13 21 -31 53 -45 15 -6 25 -17 22 -22 -11 -18
26 -65 69 -86 22 -11 46 -29 51 -40 7 -13 19 -19 38 -17 15 1 27 -2 27 -8 0
-5 5 -9 10 -9 15 0 47 -35 43 -47 -3 -7 5 -17 16 -23 12 -6 21 -17 21 -25 0
-8 3 -14 8 -14 26 4 50 -3 48 -15 0 -8 2 -14 7 -13 4 1 16 -12 26 -29 10 -17
35 -39 56 -48 21 -10 40 -27 42 -37 3 -10 10 -19 15 -19 5 0 7 3 5 8 -3 4 6 8
19 8 13 1 24 -2 24 -7 0 -5 11 -7 24 -3 20 5 27 0 42 -28 9 -18 19 -27 21 -20
3 6 9 9 14 6 6 -3 0 -14 -11 -24 l-22 -19 29 3 c15 2 35 -1 42 -8 8 -6 0 11
-18 38 -26 37 -36 45 -43 35 -8 -11 -9 -10 -4 4 7 23 -4 53 -14 37 -5 -8 -10
-2 -14 17 -4 16 -29 57 -56 90 -44 55 -70 94 -98 149 -74 149 -122 224 -225
348 -43 52 -87 80 -87 54z m-90 -103 c0 -8 -7 -15 -15 -15 -16 0 -20 12 -8 23
11 12 23 8 23 -8z m510 -485 c6 -11 8 -20 6 -20 -3 0 -10 9 -16 20 -6 11 -8
20 -6 20 3 0 10 -9 16 -20z m30 -59 c0 -12 -20 -25 -27 -18 -7 7 6 27 18 27 5
0 9 -4 9 -9z"/>
<path d="M3770 10360 c0 -5 5 -10 11 -10 5 0 7 5 4 10 -3 6 -8 10 -11 10 -2 0
-4 -4 -4 -10z"/>
<path d="M8278 10361 c10 -6 10 -10 -2 -20 -8 -7 -20 -10 -25 -6 -7 3 -8 0 -5
-9 3 -9 1 -16 -4 -16 -6 0 -22 -11 -36 -25 -42 -42 -14 -28 42 21 48 42 58 64
29 64 -8 0 -8 -3 1 -9z"/>
<path d="M11941 10355 c-1 -17 -3 -18 -11 -5 -5 8 -10 11 -10 5 0 -5 12 -21
25 -34 14 -12 22 -27 19 -33 -7 -12 24 -48 42 -48 8 0 11 -7 8 -17 -5 -14 -4
-15 4 -4 12 16 -2 64 -24 82 -7 6 -12 15 -9 19 3 4 -2 13 -10 20 -13 11 -14
10 -9 -6 5 -13 4 -16 -4 -9 -5 6 -12 19 -15 30 l-5 20 -1 -20z m59 -85 c0 -5
-2 -10 -4 -10 -3 0 -8 5 -11 10 -3 6 -1 10 4 10 6 0 11 -4 11 -10z"/>
<path d="M11840 10345 c0 -8 4 -15 10 -15 5 0 7 7 4 15 -4 8 -8 15 -10 15 -2
0 -4 -7 -4 -15z"/>
<path d="M671 10334 c0 -11 3 -14 6 -6 3 7 2 16 -1 19 -3 4 -6 -2 -5 -13z"/>
<path d="M3867 10343 c-4 -3 -7 -11 -7 -17 0 -6 5 -5 12 2 6 6 9 14 7 17 -3 3
-9 2 -12 -2z"/>
<path d="M4020 10334 c0 -17 22 -14 28 4 2 7 -3 12 -12 12 -9 0 -16 -7 -16
-16z"/>
<path d="M3896 10323 c6 -4 14 -15 17 -23 5 -11 6 -9 4 4 -1 11 -9 21 -17 23
-10 3 -11 2 -4 -4z"/>
<path d="M2425 10310 c3 -5 8 -10 11 -10 2 0 4 5 4 10 0 6 -5 10 -11 10 -5 0
-7 -4 -4 -10z"/>
<path d="M9173 10285 c0 -22 2 -30 4 -17 2 12 2 30 0 40 -3 9 -5 -1 -4 -23z"/>
<path d="M10505 10312 c6 -4 16 -20 23 -35 7 -15 16 -26 21 -22 5 3 17 -5 25
-17 9 -12 16 -18 16 -12 0 14 -71 94 -84 94 -7 0 -8 -3 -1 -8z"/>
<path d="M322 10298 c5 -15 28 -23 28 -10 0 5 -7 13 -16 16 -10 4 -14 1 -12
-6z"/>
<path d="M12520 10290 c0 -5 5 -10 11 -10 5 0 7 5 4 10 -3 6 -8 10 -11 10 -2
0 -4 -4 -4 -10z"/>
<path d="M8165 10280 c-3 -6 1 -7 9 -4 18 7 21 14 7 14 -6 0 -13 -4 -16 -10z"/>
<path d="M3900 10274 c0 -6 7 -19 16 -30 14 -18 14 -18 3 6 -14 31 -19 36 -19
24z"/>
<path d="M12470 10270 c0 -5 -8 -10 -17 -11 -15 0 -14 -2 4 -11 20 -10 21 -12
8 -49 -12 -34 -12 -39 0 -39 8 0 15 -4 15 -10 0 -5 9 -10 20 -10 11 0 20 4 20
9 0 5 10 11 23 13 18 2 14 7 -23 25 l-45 21 28 11 c30 12 36 24 10 19 -29 -4
-46 11 -32 28 8 10 8 14 0 14 -6 0 -11 -4 -11 -10z"/>
<path d="M160 10255 c0 -8 5 -15 10 -15 6 0 10 7 10 15 0 8 -4 15 -10 15 -5 0
-10 -7 -10 -15z"/>
<path d="M350 10250 c-8 -5 -10 -10 -5 -10 6 0 17 5 25 10 8 5 11 10 5 10 -5
0 -17 -5 -25 -10z"/>
<path d="M12395 10234 c-17 -13 -18 -16 -5 -24 19 -12 30 -12 30 -1 0 5 3 16
6 25 8 20 -5 20 -31 0z"/>
<path d="M190 10230 c-12 -8 -11 -10 8 -10 12 0 22 5 22 10 0 13 -11 13 -30 0z"/>
<path d="M5590 10220 c6 -11 13 -20 16 -20 2 0 0 9 -6 20 -6 11 -13 20 -16 20
-2 0 0 -9 6 -20z"/>
<path d="M4593 10216 c-13 -6 -23 -14 -23 -19 0 -9 36 9 45 23 3 6 5 9 3 9 -2
-1 -13 -6 -25 -13z"/>
<path d="M12030 10214 c0 -5 7 -19 15 -30 8 -10 15 -14 15 -8 0 5 -7 19 -15
30 -8 10 -15 14 -15 8z"/>
<path d="M490 10180 c8 -5 22 -9 30 -9 10 0 8 3 -5 9 -27 12 -43 12 -25 0z"/>
<path d="M12017 10177 c-3 -8 1 -14 8 -14 7 0 11 6 8 14 -3 7 -6 13 -8 13 -2
0 -5 -6 -8 -13z"/>
<path d="M2135 10170 c-3 -5 1 -10 9 -10 9 0 16 5 16 10 0 6 -4 10 -9 10 -6 0
-13 -4 -16 -10z"/>
<path d="M9861 10164 c0 -11 3 -14 6 -6 3 7 2 16 -1 19 -3 4 -6 -2 -5 -13z"/>
<path d="M480 10156 c0 -9 6 -16 13 -16 8 0 7 -4 -3 -10 -13 -9 -13 -10 0 -10
8 0 20 4 25 8 13 9 17 32 6 32 -5 0 -16 3 -25 6 -11 4 -16 1 -16 -10z"/>
<path d="M5245 10140 c10 -11 20 -20 23 -20 3 0 -3 9 -13 20 -10 11 -20 20
-23 20 -3 0 3 -9 13 -20z"/>
<path d="M12380 10125 c0 -21 -5 -35 -12 -36 -7 0 1 -5 17 -10 35 -11 155 -2
155 12 0 5 -9 9 -20 9 -11 0 -20 5 -20 10 0 6 -4 10 -10 10 -5 0 -10 -9 -10
-20 0 -16 -7 -20 -30 -20 -28 0 -30 2 -30 40 0 33 -3 40 -20 40 -16 0 -20 -7
-20 -35z"/>
<path d="M6210 10130 c-13 -8 -12 -10 3 -10 9 0 17 5 17 10 0 12 -1 12 -20 0z"/>
<path d="M9881 10124 c0 -11 3 -14 6 -6 3 7 2 16 -1 19 -3 4 -6 -2 -5 -13z"/>
<path d="M12030 10136 c0 -9 40 -13 46 -5 3 5 -6 9 -20 9 -14 0 -26 -2 -26 -4z"/>
<path d="M6103 10113 c9 -2 23 -2 30 0 6 3 -1 5 -18 5 -16 0 -22 -2 -12 -5z"/>
<path d="M4412 10068 c84 -76 108 -96 108 -89 0 9 -137 131 -147 131 -4 0 13
-19 39 -42z"/>
<path d="M4131 10073 c-10 -26 -10 -27 4 -9 8 11 15 23 15 28 0 15 -7 8 -19
-19z"/>
<path d="M9890 10091 c0 -6 5 -13 10 -16 6 -3 10 1 10 9 0 9 -4 16 -10 16 -5
0 -10 -4 -10 -9z"/>
<path d="M472 10070 c0 -14 2 -19 5 -12 2 6 2 18 0 25 -3 6 -5 1 -5 -13z"/>
<path d="M4157 10054 c-4 -4 -7 -14 -7 -23 0 -11 3 -12 11 -4 6 6 10 16 7 23
-2 6 -7 8 -11 4z"/>
<path d="M4100 10028 c-1 -7 -17 -35 -36 -63 -40 -56 -79 -118 -79 -125 -1 -3
-7 -16 -14 -28 -7 -13 -11 -26 -8 -28 4 -4 157 239 157 250 0 12 -20 6 -20 -6z"/>
<path d="M6884 10006 c11 -9 24 -16 30 -16 12 0 7 5 -24 19 -24 11 -24 11 -6
-3z"/>
<path d="M12658 10003 c12 -2 32 -2 45 0 12 2 2 4 -23 4 -25 0 -35 -2 -22 -4z"/>
<path d="M8 9993 c7 -3 16 -2 19 1 4 3 -2 6 -13 5 -11 0 -14 -3 -6 -6z"/>
<path d="M4569 9930 c24 -22 45 -40 47 -38 4 5 -55 61 -76 72 -8 5 5 -11 29
-34z"/>
<path d="M9425 9930 c3 -5 8 -10 11 -10 2 0 4 5 4 10 0 6 -5 10 -11 10 -5 0
-7 -4 -4 -10z"/>
<path d="M12465 9850 c-3 -5 -1 -10 4 -10 6 0 11 5 11 10 0 6 -2 10 -4 10 -3
0 -8 -4 -11 -10z"/>
<path d="M12236 9825 c4 -8 8 -15 10 -15 2 0 4 7 4 15 0 8 -4 15 -10 15 -5 0
-7 -7 -4 -15z"/>
<path d="M3940 9759 c0 -5 5 -7 10 -4 6 3 10 8 10 11 0 2 -4 4 -10 4 -5 0 -10
-5 -10 -11z"/>
<path d="M3905 9706 c-18 -22 -36 -58 -32 -62 3 -3 15 11 27 31 22 35 25 55 5
31z"/>
<path d="M10110 9610 c0 -5 4 -10 9 -10 6 0 13 5 16 10 3 6 -1 10 -9 10 -9 0
-16 -4 -16 -10z"/>
<path d="M9945 9557 c-23 -26 -26 -37 -10 -31 11 5 14 2 9 -10 -9 -23 9 -20
23 4 11 16 10 18 -3 13 -13 -5 -15 -2 -9 15 7 25 5 27 -10 9z"/>
<path d="M10002 9488 c1 -15 6 -25 10 -22 10 6 26 -28 21 -43 -3 -7 0 -13 6
-13 17 0 12 22 -14 65 -23 37 -25 38 -23 13z"/>
<path d="M9934 9477 c3 -10 6 -23 6 -28 0 -5 5 -9 10 -9 14 0 12 13 -6 36 -14
17 -15 17 -10 1z"/>
<path d="M9984 9425 c-3 -7 6 -30 21 -50 22 -28 30 -33 41 -24 8 6 13 21 13
33 -2 20 -2 20 -6 -1 -5 -28 -23 -30 -23 -3 0 13 -5 18 -15 14 -14 -6 -19 5
-16 34 2 17 -8 15 -15 -3z"/>
<path d="M10066 9313 c7 -4 14 -17 17 -28 5 -16 5 -15 4 4 -1 14 -9 26 -17 28
-10 3 -11 2 -4 -4z"/>
<path d="M10102 9240 c0 -14 2 -19 5 -12 2 6 2 18 0 25 -3 6 -5 1 -5 -13z"/>
<path d="M9010 9206 c0 -10 42 -94 60 -121 30 -46 24 -23 -16 55 -31 61 -44
81 -44 66z"/>
<path d="M10124 9185 c8 -16 22 -39 31 -50 15 -19 15 -18 1 10 -8 17 -22 39
-31 50 -15 19 -15 18 -1 -10z"/>
<path d="M10170 9101 c0 -5 -3 -18 -6 -28 -4 -13 -3 -14 4 -5 7 10 12 5 22
-20 28 -68 61 -138 66 -138 7 0 -7 44 -16 50 -4 3 -19 38 -34 78 -26 67 -36
85 -36 63z"/>
<path d="M6287 8972 c-15 -15 -35 -52 -45 -82 -18 -55 -18 -55 -110 -100 -116
-57 -162 -95 -219 -180 -40 -60 -46 -78 -54 -147 -8 -72 -2 -145 17 -211 6
-19 3 -23 -12 -20 -18 3 -19 -4 -17 -109 1 -61 6 -121 12 -132 6 -11 31 -34
56 -52 25 -18 45 -37 45 -44 0 -6 -23 -33 -51 -60 l-50 -50 -115 3 c-81 1
-114 -1 -114 -9 0 -7 20 -34 45 -60 25 -26 45 -54 45 -62 0 -7 -13 -26 -30
-42 -32 -31 -38 -56 -17 -73 6 -5 44 -26 82 -46 84 -44 162 -57 199 -33 13 9
26 13 30 10 13 -14 6 -156 -10 -189 -17 -36 -91 -106 -134 -129 -54 -28 -186
-38 -379 -30 -274 12 -376 10 -575 -15 -193 -24 -352 -24 -646 -1 -228 17
-302 29 -433 68 -299 88 -499 126 -748 143 -312 21 -613 80 -740 146 -15 7
-43 42 -63 76 -47 83 -79 117 -151 163 -106 67 -242 172 -271 209 -16 20 -33
36 -39 36 -5 0 -21 -16 -34 -35 -18 -27 -22 -42 -17 -68 10 -54 59 -120 135
-183 40 -32 68 -60 62 -62 -5 -2 -35 4 -68 12 -77 20 -549 98 -591 98 -39 0
-82 -35 -82 -67 0 -44 22 -55 180 -94 160 -40 217 -58 208 -67 -3 -3 -57 8
-119 24 -162 42 -301 66 -333 58 -38 -9 -66 -41 -66 -75 0 -41 46 -77 117 -91
81 -16 88 -21 22 -16 -65 5 -90 -7 -109 -54 -10 -24 -10 -33 0 -45 14 -17 134
-57 255 -86 l80 -18 -70 2 -70 2 -19 -38 c-16 -33 -16 -41 -5 -52 26 -23 83
-36 233 -51 82 -8 193 -22 245 -30 53 -8 164 -17 246 -20 120 -5 165 -10 225
-29 41 -13 113 -34 160 -45 47 -12 146 -41 220 -65 532 -171 720 -234 825
-276 125 -50 222 -69 354 -69 86 0 308 -35 451 -71 113 -28 157 -41 395 -114
66 -20 176 -45 245 -56 162 -25 206 -47 305 -150 102 -107 125 -157 137 -303
11 -134 44 -438 63 -596 28 -223 18 -475 -26 -673 -10 -48 -18 -118 -18 -155
4 -144 -18 -288 -66 -431 l-45 -136 -98 -3 c-53 -1 -151 -9 -217 -18 -332 -43
-715 -57 -933 -34 -256 27 -594 116 -765 202 -43 21 -129 58 -191 82 -95 37
-204 90 -381 185 -98 53 -253 170 -377 283 -48 44 -98 88 -110 97 -93 64 -287
246 -321 301 -40 65 -131 186 -202 266 -68 78 -132 133 -303 264 -75 57 -102
85 -102 106 0 4 9 -1 20 -11 12 -11 28 -20 36 -21 9 -1 19 -6 22 -10 4 -4 -2
-4 -13 -1 -13 4 -10 -1 10 -16 16 -12 39 -31 50 -42 12 -11 32 -20 46 -21 13
0 44 -3 69 -7 31 -5 39 -4 25 2 -13 7 -15 10 -5 10 22 1 44 -15 36 -27 -3 -6
9 -15 29 -22 19 -6 39 -19 44 -27 15 -27 41 -8 41 31 0 32 2 34 45 40 58 9 65
22 15 30 -22 3 -40 10 -40 14 0 5 -7 17 -16 28 -8 10 -13 13 -9 7 4 -9 1 -11
-9 -7 -32 12 -15 22 37 21 28 0 46 -2 39 -4 -18 -7 -4 -23 19 -23 10 0 19 -5
19 -12 0 -6 3 -8 7 -5 3 4 12 2 19 -4 8 -7 14 -7 19 1 3 5 14 10 23 10 13 0
13 -2 -4 -15 -18 -14 -17 -14 9 -5 22 8 40 6 78 -7 27 -10 49 -21 49 -25 0 -4
-7 -5 -15 -2 -9 4 -15 0 -15 -10 0 -8 -9 -20 -20 -26 -11 -6 -20 -17 -20 -25
0 -8 -4 -15 -10 -15 -5 0 -10 9 -10 20 0 11 -4 20 -10 20 -18 0 -10 -32 12
-53 16 -13 19 -21 11 -24 -15 -5 -17 -43 -3 -43 6 0 10 -9 10 -20 0 -26 -8
-25 -29 1 l-18 22 -20 -23 c-24 -25 -47 -18 -40 12 4 14 2 18 -10 14 -8 -3
-22 -6 -31 -7 -9 0 -12 -3 -7 -5 16 -6 235 -219 235 -228 0 -10 41 -50 71 -69
13 -8 44 -18 69 -22 25 -4 55 -13 67 -21 15 -10 30 -11 54 -4 43 13 42 13 35
-5 -11 -29 5 -45 45 -45 32 0 39 -3 39 -20 0 -16 7 -20 33 -21 74 -4 131 7
100 18 -20 7 -15 23 7 23 11 0 20 -6 20 -14 0 -28 68 -43 78 -17 3 9 10 19 15
22 5 3 -14 9 -42 13 -28 4 -51 11 -51 17 0 7 27 9 84 4 46 -4 102 -4 124 0 33
5 39 10 35 26 -6 21 20 26 46 10 11 -7 9 -10 -9 -16 -29 -9 -8 -25 35 -25 24
0 27 -2 15 -11 -12 -9 -12 -10 4 -5 10 4 35 3 55 -1 33 -6 34 -7 11 -13 -20
-5 -15 -8 28 -14 49 -6 64 -17 42 -31 -16 -10 -1 -25 18 -19 14 5 15 4 2 -5
-20 -14 -13 -18 45 -29 33 -5 49 -13 47 -21 -2 -10 6 -12 34 -7 27 6 34 4 28
-5 -5 -9 3 -11 32 -6 21 4 48 7 58 7 32 0 5 15 -52 29 -62 15 -96 31 -176 83
-33 21 -65 38 -71 38 -7 0 -18 7 -25 15 -7 9 -18 14 -24 12 -6 -2 -16 2 -21
10 -6 8 -28 20 -50 28 -22 8 -35 14 -30 15 6 0 -24 18 -65 39 -41 21 -122 66
-180 100 -58 33 -112 61 -121 61 -9 0 -22 7 -30 16 -7 8 -21 13 -31 11 -10 -3
-16 -1 -12 4 3 5 -2 9 -10 9 -9 0 -16 4 -16 9 0 5 -10 11 -22 15 -13 3 -36 17
-52 31 -16 14 -34 25 -41 25 -7 0 -22 9 -35 20 -13 11 -27 20 -31 20 -4 0 -14
6 -21 13 -7 7 -24 18 -38 25 -14 7 -50 30 -80 52 -30 22 -59 40 -63 40 -5 0
-32 11 -60 25 -95 45 -237 94 -255 89 -14 -5 -14 -4 -3 4 11 8 6 14 -24 26
-31 13 -41 14 -54 4 -14 -12 -14 -11 -2 5 7 9 9 17 4 17 -4 0 -44 20 -88 45
-71 41 -82 44 -109 35 -21 -7 -33 -7 -40 0 -8 8 -7 10 4 6 17 -6 51 13 35 20
-6 2 -52 29 -103 59 -51 31 -98 53 -104 49 -6 -4 -8 -3 -5 3 3 5 -13 20 -37
31 -51 26 -168 29 -366 11 l-119 -11 -108 63 c-59 34 -154 89 -211 121 -81 47
-242 118 -267 118 -3 0 -5 -235 -5 -523 0 -393 3 -526 12 -535 9 -9 9 -12 0
-12 -9 0 -12 -574 -12 -2555 l0 -2555 6400 0 6400 0 0 3055 c0 2789 -1 3055
-16 3055 -9 0 -18 -9 -21 -20 -3 -11 -16 -23 -28 -26 -32 -8 -78 -1 -82 13 -5
13 91 47 125 45 18 -1 22 3 22 28 0 20 -5 30 -15 30 -26 0 -106 -36 -377 -168
-262 -128 -318 -150 -447 -171 -65 -11 -106 -31 -63 -31 12 0 22 3 22 8 0 4
19 7 43 8 50 0 201 34 205 46 2 4 16 5 30 2 19 -4 23 -3 13 4 -16 12 3 27 21
16 7 -4 8 -3 4 4 -6 11 6 16 27 13 4 0 7 4 7 10 0 6 9 8 23 4 16 -4 18 -4 8 3
-11 8 -10 12 7 21 11 6 28 8 38 4 12 -4 15 -3 10 5 -5 8 0 12 14 12 11 0 29 6
40 12 16 10 24 10 40 1 15 -10 18 -10 15 0 -2 6 4 22 15 35 14 17 25 21 44 16
14 -3 26 -10 26 -15 0 -5 -12 -6 -27 -3 -25 7 -27 6 -15 -9 15 -18 5 -42 -17
-42 -7 0 -17 -10 -22 -22 -5 -14 -5 -23 1 -23 6 0 10 9 10 20 0 11 5 20 11 20
5 0 7 -5 3 -12 -5 -7 -2 -9 9 -5 11 4 14 2 10 -9 -3 -7 -11 -14 -19 -14 -8 0
-14 -5 -14 -11 0 -5 -5 -7 -10 -4 -6 4 -27 -10 -46 -29 -20 -20 -42 -36 -50
-36 -8 0 -14 -7 -14 -16 0 -11 -6 -15 -20 -11 -13 3 -20 0 -20 -9 0 -8 -9 -14
-19 -14 -11 0 -23 -5 -26 -10 -4 -6 -30 -22 -58 -37 -29 -14 -54 -29 -57 -33
-3 -4 -26 -12 -51 -18 -26 -7 -61 -25 -78 -41 -29 -27 -30 -31 -22 -75 5 -27
5 -49 0 -52 -5 -3 -7 -10 -4 -15 3 -5 -1 -6 -9 -3 -9 3 -16 1 -16 -5 0 -8 -11
-10 -34 -6 -20 4 -36 2 -40 -4 -9 -14 -53 -14 -61 -1 -3 6 -22 10 -41 10 -27
0 -34 -4 -34 -20 0 -17 7 -20 44 -20 25 0 48 -4 51 -10 6 -10 -7 -14 -34 -10
-8 1 -18 -4 -22 -12 -8 -11 -11 -11 -18 1 -9 14 -35 6 -26 -9 3 -4 -1 -8 -8
-7 -6 0 -25 -1 -42 -3 -26 -2 -23 -4 15 -10 35 -6 55 -3 87 11 23 11 46 19 50
19 5 0 14 9 21 21 8 12 19 18 28 15 8 -3 12 -1 9 4 -3 5 4 10 17 9 13 0 65 9
117 20 52 12 97 21 100 21 18 0 -43 -30 -93 -45 -123 -39 -308 -126 -433 -204
-35 -22 -78 -45 -97 -52 -19 -7 -34 -15 -33 -19 2 -7 -45 -48 -123 -107 -30
-23 -64 -50 -75 -60 -11 -10 -27 -17 -35 -16 -18 3 -56 -24 -47 -33 4 -4 13
-1 22 6 9 7 18 11 20 8 9 -9 -353 -366 -440 -434 -248 -192 -529 -350 -775
-437 -187 -66 -614 -203 -705 -226 -153 -38 -302 -65 -473 -86 -64 -8 -225
-28 -357 -46 -265 -34 -481 -41 -800 -26 -141 7 -172 11 -183 25 -25 33 -55
156 -54 224 1 53 -6 89 -34 170 -31 90 -35 110 -30 161 4 32 2 83 -5 118 -10
51 -10 62 2 70 11 7 11 9 -2 9 -47 0 -58 218 -23 453 17 116 24 205 24 312 0
287 34 515 102 691 55 144 98 190 228 246 52 22 133 49 180 60 47 11 193 49
326 84 133 35 268 70 300 79 32 9 152 24 265 35 224 21 289 33 419 79 47 16
236 81 420 145 184 63 391 136 460 161 69 26 188 67 265 92 128 41 148 45 234
44 102 -2 430 23 526 40 243 41 329 69 337 111 12 67 -15 76 -137 49 -50 -11
-117 -22 -150 -25 -47 -5 -30 1 75 28 364 91 405 111 351 177 -18 23 -19 23
-112 10 -52 -7 -145 -24 -208 -37 -63 -13 -116 -22 -118 -20 -6 6 147 40 311
71 156 28 186 44 186 100 0 84 -40 88 -312 32 -120 -24 -218 -41 -218 -36 0
10 4 11 185 49 295 63 260 51 259 93 -2 49 -19 67 -63 67 -37 0 -392 -47 -610
-80 -87 -14 -129 -16 -142 -9 -33 17 -36 10 99 203 57 83 66 122 32 156 -27
27 -52 25 -81 -6 -13 -14 -53 -49 -89 -77 -184 -146 -279 -238 -345 -336 -42
-62 -95 -97 -189 -126 -95 -30 -373 -86 -536 -110 -280 -40 -822 -136 -900
-160 -107 -33 -402 -74 -585 -82 -117 -4 -177 -1 -365 22 -247 30 -409 30
-560 0 -166 -33 -316 -13 -427 57 -65 42 -87 70 -107 138 -20 69 -22 200 -2
200 7 0 19 -7 26 -15 19 -22 65 -18 110 10 34 22 51 25 126 25 100 0 106 11
28 50 -80 42 -79 38 -33 79 32 28 41 42 36 55 -6 16 -13 17 -45 11 -76 -17
-120 -11 -149 18 -23 23 -28 37 -31 96 l-4 69 25 -5 c33 -6 94 56 104 107 10
46 10 197 -1 207 -4 4 -16 -3 -26 -17 -21 -27 -27 -12 -9 22 40 75 22 277 -35
393 -39 78 -120 167 -181 196 -50 25 -113 77 -120 100 -4 11 -9 18 -12 16 -11
-11 31 -70 63 -89 30 -18 45 -38 28 -38 -16 0 -130 45 -135 53 -3 5 -12 33
-18 63 -15 67 -46 94 -105 94 -33 0 -48 -6 -69 -28z m-7 -191 c0 -5 -23 -16
-52 -26 -98 -32 -146 -63 -197 -128 -58 -72 -79 -137 -82 -244 -2 -78 -18
-102 -20 -30 -3 127 12 185 71 278 38 58 100 104 185 136 64 24 95 28 95 14z
m312 -23 c133 -28 227 -175 233 -368 2 -47 1 -69 -1 -50 -19 150 -60 272 -107
323 -40 43 -60 53 -167 89 -82 27 -67 30 42 6z m-5279 -1385 c-7 -2 -19 -2
-25 0 -7 3 -2 5 12 5 14 0 19 -2 13 -5z m70 -10 c-7 -2 -21 -2 -30 0 -10 3 -4
5 12 5 17 0 24 -2 18 -5z m60 -10 c-7 -2 -21 -2 -30 0 -10 3 -4 5 12 5 17 0
24 -2 18 -5z m44 -9 c-3 -3 -12 -4 -19 -1 -8 3 -5 6 6 6 11 1 17 -2 13 -5z
m9630 -180 c-3 -3 -12 -4 -19 -1 -8 3 -5 6 6 6 11 1 17 -2 13 -5z m1518 -1064
c-3 -5 -12 -10 -18 -10 -7 0 -6 4 3 10 19 12 23 12 15 0z m3 -32 c-6 -16 -80
-36 -103 -27 -19 7 -19 7 -1 14 21 9 75 22 94 24 8 1 12 -4 10 -11z m-54 -44
c18 -7 12 -24 -10 -24 -8 0 -14 7 -14 15 0 17 2 18 24 9z m-11364 -254 c-8 -5
-19 -10 -25 -10 -5 0 -3 5 5 10 8 5 20 10 25 10 6 0 3 -5 -5 -10z m127 -82
c18 -23 22 -60 9 -74 -11 -11 -14 -6 -14 28 -1 23 -7 45 -14 49 -8 6 -9 9 -2
9 6 0 16 -6 21 -12z m43 -29 c-7 -11 -14 -18 -17 -15 -3 3 0 12 7 21 18 21 23
19 10 -6z m75 -17 c-3 -3 -11 0 -18 7 -9 10 -8 11 6 5 10 -3 15 -9 12 -12z
m-52 -7 c-3 -9 -8 -14 -10 -11 -3 3 -2 9 2 15 9 16 15 13 8 -4z m57 -19 c0 -2
-7 -7 -16 -10 -8 -3 -12 -2 -9 4 6 10 25 14 25 6z m19 -73 c7 -8 10 -17 6 -21
-3 -4 -11 1 -16 11 -6 9 -15 17 -21 17 -7 0 -7 -4 0 -13 9 -10 0 -13 -44 -15
-31 -1 -54 2 -54 8 0 5 16 10 35 10 22 0 38 6 41 14 6 16 30 11 53 -11z m146
7 c-3 -5 -14 -10 -23 -10 -15 0 -15 2 -2 10 20 13 33 13 25 0z m-88 -22 c-3
-8 -6 -5 -6 6 -1 11 2 17 5 13 3 -3 4 -12 1 -19z m43 12 c0 -5 -4 -10 -9 -10
-6 0 -13 5 -16 10 -3 6 1 10 9 10 9 0 16 -4 16 -10z m75 0 c-3 -5 -11 -10 -16
-10 -6 0 -7 5 -4 10 3 6 11 10 16 10 6 0 7 -4 4 -10z m-325 -40 c0 -5 -4 -10
-10 -10 -5 0 -10 5 -10 10 0 6 5 10 10 10 6 0 10 -4 10 -10z m283 -61 c-21 -4
-40 -5 -42 -3 -2 2 1 4 7 4 7 0 12 7 12 16 0 10 6 14 15 10 8 -3 15 0 15 7 0
7 7 3 16 -8 14 -19 13 -20 -23 -26z m-58 -19 c3 -5 2 -10 -4 -10 -5 0 -13 5
-16 10 -3 6 -2 10 4 10 5 0 13 -4 16 -10z m35 -20 c0 -5 -2 -10 -4 -10 -3 0
-8 5 -11 10 -3 6 -1 10 4 10 6 0 11 -4 11 -10z m400 -34 c8 -3 -1 -3 -20 0
-19 4 -40 10 -46 15 -6 5 -14 6 -18 2 -4 -4 -4 0 0 10 6 16 8 16 38 -2 17 -10
38 -21 46 -25z m5 24 c3 -5 1 -10 -4 -10 -6 0 -11 5 -11 10 0 6 2 10 4 10 3 0
8 -4 11 -10z m5329 -17 c-7 -31 -12 -38 -18 -32 -7 7 6 59 15 59 5 0 6 -12 3
-27z m-5094 -160 c0 -19 -14 -16 -35 7 -10 11 -26 20 -36 20 -12 0 -16 5 -13
14 4 11 13 9 45 -8 21 -11 39 -27 39 -33z m-411 5 c5 -13 7 -25 5 -27 -5 -6
-44 30 -44 41 0 18 31 7 39 -14z m42 -31 c-6 -8 -8 -17 -4 -21 4 -4 0 -4 -9
-1 -14 5 -15 10 -5 21 16 17 33 18 18 1z m129 -7 c0 -5 -5 -10 -11 -10 -5 0
-7 5 -4 10 3 6 8 10 11 10 2 0 4 -4 4 -10z m329 -26 c3 -16 1 -17 -13 -5 -19
16 -21 34 -3 29 6 -3 14 -13 16 -24z m-2065 -104 c-10 -4 -21 -6 -24 -3 -8 7
24 22 34 16 5 -4 1 -10 -10 -13z m82 -38 c6 -19 12 -29 36 -63 20 -28 33 -89
19 -89 -5 0 -17 -3 -25 -6 -14 -5 -15 -2 -6 21 15 40 12 53 -15 77 -15 13 -23
28 -20 37 3 8 -5 25 -17 39 l-23 25 23 -12 c13 -7 25 -20 28 -29z m284 -147
c6 -8 10 -19 8 -24 -1 -5 -11 2 -21 15 -19 26 -8 34 13 9z m650 -337 c0 -21
-19 -4 -29 25 l-11 32 20 -25 c11 -14 20 -28 20 -32z m11441 -1 c-10 -9 -11
-8 -5 6 3 10 9 15 12 12 3 -3 0 -11 -7 -18z m-833 -54 c2 -9 -5 -11 -25 -7
-24 4 -31 0 -53 -33 -19 -30 -25 -34 -28 -20 -8 41 93 98 106 60z m-10558
-122 c-1 -23 -29 29 -30 54 0 16 3 14 15 -9 8 -15 15 -36 15 -45z m10430 54
c0 -8 -6 -15 -14 -15 -34 0 -28 -56 7 -63 15 -3 12 -5 -10 -6 -22 -1 -43 -12
-67 -36 -23 -23 -41 -33 -52 -28 -30 11 8 -35 39 -48 l29 -12 -28 -16 c-16 -8
-37 -15 -47 -16 -11 -1 -22 -7 -27 -14 -4 -7 -25 -14 -46 -16 -61 -4 -82 -14
-92 -43 -8 -25 4 -82 18 -82 3 0 22 23 43 51 27 38 37 46 37 31 0 -20 -80
-107 -150 -162 -54 -43 -63 -37 -11 8 l44 38 -32 32 c-28 27 -40 32 -82 32
-28 0 -48 4 -45 9 3 4 18 6 33 4 22 -4 25 -2 13 6 -12 9 -11 11 8 11 12 0 22
-4 22 -9 0 -5 8 -11 18 -15 9 -3 24 -9 32 -13 12 -5 13 -4 3 9 -11 12 -9 19 7
38 11 13 20 33 20 45 0 28 42 67 74 69 23 1 31 12 28 37 -1 4 8 5 18 2 11 -3
20 -13 20 -22 0 -14 -2 -14 -10 -1 -12 20 -21 9 -13 -18 6 -25 20 -27 47 -7
11 8 29 13 40 9 17 -4 18 -3 6 5 -8 6 -25 11 -37 11 -14 0 -23 6 -23 15 0 8 4
15 9 15 5 0 11 9 14 21 3 12 10 18 16 15 6 -4 19 2 30 13 11 11 22 16 26 13 4
-4 6 0 5 8 -5 30 1 41 37 75 42 40 43 40 43 20z m396 -20 c-11 -8 -25 -15 -30
-15 -6 0 -2 7 8 15 11 8 25 15 30 15 6 0 2 -7 -8 -15z m-10810 -89 c0 -24 -4
-32 -13 -29 -7 3 -13 7 -13 9 0 4 23 54 25 54 0 0 1 -15 1 -34z m10439 -6 c-3
-5 -16 -10 -28 -9 -21 0 -21 1 -2 9 28 12 37 12 30 0z m-10487 -30 c7 -11 18
-17 27 -14 8 4 15 1 15 -6 0 -6 4 -9 8 -6 5 3 15 -4 22 -15 14 -19 67 -28 55
-9 -3 6 -1 10 4 10 6 0 11 -5 11 -11 0 -7 17 -10 45 -7 27 2 44 -1 42 -7 -2
-6 -41 -10 -89 -10 -79 0 -85 -1 -77 -17 7 -13 6 -18 -5 -18 -8 0 -20 16 -26
36 -9 26 -21 40 -47 50 -29 12 -33 17 -23 29 16 20 23 19 38 -5z m222 -40 c0
-5 -5 -10 -11 -10 -5 0 -7 5 -4 10 3 6 8 10 11 10 2 0 4 -4 4 -10z m79 6 c-11
-9 -69 -14 -69 -6 0 6 17 10 37 10 20 0 34 -2 32 -4z m66 -76 c-4 -6 2 -10 13
-10 10 0 30 -13 45 -29 20 -23 23 -30 11 -35 -9 -4 -18 3 -24 19 -7 19 -19 26
-51 31 -37 6 -40 8 -24 20 16 12 16 15 -5 46 l-22 33 31 -33 c18 -18 29 -37
26 -42z m-394 3 c13 -16 12 -17 -3 -4 -10 7 -18 15 -18 17 0 8 8 3 21 -13z
m9843 -62 c4 -5 -3 -7 -14 -4 -23 6 -26 13 -6 13 8 0 17 -4 20 -9z m-9317 -69
c-10 -2 -27 4 -38 14 -32 28 -22 35 18 11 29 -17 34 -23 20 -25z m9793 38 c0
-5 -9 -10 -20 -10 -11 0 -20 5 -20 10 0 6 9 10 20 10 11 0 20 -4 20 -10z
m-557 -36 c-5 -13 -15 -18 -68 -28 l-30 -6 27 15 c15 8 29 24 33 35 5 16 9 17
25 8 10 -6 16 -17 13 -24z m144 30 c-3 -3 -12 -4 -19 -1 -8 3 -5 6 6 6 11 1
17 -2 13 -5z m-8869 -24 c38 -23 42 -24 42 -7 0 8 22 12 73 13 39 1 61 -1 47
-3 -34 -5 -122 -35 -137 -46 -7 -5 -13 -1 -17 11 -7 22 -39 40 -81 45 -28 4
-28 4 5 5 20 1 49 -7 68 -18z m8909 14 c-3 -3 -12 -4 -19 -1 -8 3 -5 6 6 6 11
1 17 -2 13 -5z m-9032 -13 c-6 -5 -30 -10 -55 -11 -69 -3 -72 3 -5 10 33 4 62
7 65 8 2 1 0 -2 -5 -7z m9070 -1 c-3 -5 -10 -10 -16 -10 -5 0 -9 5 -9 10 0 6
7 10 16 10 8 0 12 -4 9 -10z m-9195 -14 c0 -2 -8 -10 -17 -17 -16 -13 -17 -12
-4 4 13 16 21 21 21 13z m-162 -27 c23 -6 40 -14 37 -17 -3 -3 5 -16 17 -29
12 -12 19 -26 15 -29 -3 -4 -21 9 -39 29 -41 43 -118 59 -168 34 -35 -18 -41
-7 -8 15 25 17 79 15 146 -3z m667 1 c4 -6 -6 -10 -22 -9 -25 0 -26 1 -8 9 11
5 21 9 22 9 1 1 5 -3 8 -9z m195 -40 c33 -11 40 -17 36 -33 -3 -11 2 -30 11
-43 8 -13 11 -24 7 -24 -5 0 -3 -4 5 -9 12 -8 12 -12 2 -25 -10 -12 -7 -17 19
-31 17 -9 36 -13 43 -9 7 4 9 4 5 -1 -4 -4 -2 -15 5 -23 10 -13 9 -15 -6 -9
-11 4 -16 3 -12 -3 9 -14 46 -13 42 1 -1 6 4 14 11 16 6 3 12 0 12 -6 0 -6 9
-11 19 -11 43 0 29 -19 -16 -23 -48 -3 -48 -3 10 -5 31 -1 57 -6 57 -11 0 -5
10 -11 22 -14 19 -5 20 -8 7 -23 -13 -16 -12 -16 6 -7 25 13 62 -8 49 -28 -5
-9 -2 -10 10 -6 13 5 17 3 13 -6 -3 -8 -1 -20 4 -28 8 -12 10 -12 18 1 15 22
63 -6 55 -33 -4 -13 -2 -17 5 -13 6 4 20 2 32 -5 17 -9 19 -13 8 -20 -11 -7
-11 -9 -1 -9 7 0 10 -4 7 -10 -3 -5 1 -10 10 -10 10 0 13 5 9 12 -4 7 -3 8 4
4 7 -4 12 -13 12 -20 0 -7 6 -14 13 -15 29 -5 263 -10 532 -11 294 -1 512 -17
605 -45 25 -8 82 -17 128 -20 45 -4 82 -10 82 -15 0 -4 33 -10 72 -14 57 -5
75 -3 83 7 6 8 39 17 78 21 64 7 67 7 67 -13 0 -12 5 -21 10 -21 6 0 10 9 10
20 0 11 -4 20 -10 20 -5 0 -10 9 -10 19 0 17 6 19 38 16 20 -3 29 -2 20 1 -24
7 -23 24 2 24 11 0 20 5 20 10 0 6 5 10 10 10 6 0 10 -11 10 -25 0 -14 5 -25
11 -25 6 0 9 9 6 20 -3 13 -1 18 6 13 6 -4 8 0 4 11 -5 13 0 18 24 23 23 4 31
12 36 34 3 16 9 29 13 29 5 0 11 14 14 30 3 17 9 44 12 61 3 17 8 29 10 27 2
-3 -5 -57 -16 -122 -11 -64 -20 -128 -20 -141 0 -33 -87 -125 -163 -173 -132
-83 -242 -130 -382 -164 -165 -40 -530 -23 -818 38 -107 22 -267 82 -309 115
-20 16 -44 29 -52 29 -9 0 -33 15 -53 33 -51 45 -84 67 -102 67 -11 0 -3 -8
48 -47 2 -2 2 -5 0 -8 -3 -2 -27 7 -54 20 -26 14 -54 25 -62 25 -18 0 -17 20
2 25 52 17 51 16 25 30 -17 9 -32 10 -48 4 -31 -12 -40 -4 -13 11 20 10 20 12
6 48 -17 39 -59 82 -82 82 -7 0 -13 5 -13 10 0 6 5 10 10 10 6 0 10 11 10 25
0 20 -5 25 -25 25 -14 0 -25 -4 -25 -10 0 -5 -9 -10 -20 -10 -16 0 -19 5 -14
28 9 43 -16 57 -104 57 -74 0 -75 0 -93 34 -10 19 -31 47 -46 64 -19 20 -22
28 -11 24 22 -8 32 8 24 39 -7 26 -41 34 -49 12 -2 -7 -8 -9 -13 -5 -4 4 -3
17 4 27 10 16 9 28 -3 62 -15 45 -20 78 -5 42 4 -11 26 -26 50 -34z m-790 10
c0 -5 -4 -10 -10 -10 -5 0 -10 5 -10 10 0 6 5 10 10 10 6 0 10 -4 10 -10z m40
-11 c0 -6 -4 -7 -10 -4 -5 3 -10 1 -10 -4 0 -19 22 -12 27 9 3 11 9 20 13 20
4 0 10 -9 13 -20 4 -14 0 -20 -11 -21 -12 0 -10 -3 6 -9 12 -5 22 -14 22 -19
0 -12 -37 -22 -64 -18 -22 4 -35 27 -15 27 10 0 10 3 2 11 -9 9 -9 16 0 30 11
18 27 17 27 -2z m8920 4 c0 5 4 5 10 2 13 -8 -10 -53 -40 -80 l-23 -20 22 42
c11 23 18 50 15 60 -5 15 -4 16 5 3 6 -8 11 -11 11 -7z m-8630 -3 c0 -5 -5
-10 -11 -10 -5 0 -7 5 -4 10 3 6 8 10 11 10 2 0 4 -4 4 -10z m8663 -70 c-13
-5 -23 -13 -23 -18 0 -5 -15 -17 -32 -27 -18 -10 -48 -37 -65 -61 -30 -40 -31
-44 -13 -44 11 0 20 -4 20 -10 0 -5 -13 -10 -29 -10 -40 0 -80 -33 -64 -52 10
-12 5 -14 -36 -14 -32 0 -54 -6 -66 -17 -9 -9 -12 -17 -6 -17 6 0 11 -4 11 -8
0 -10 -59 -32 -85 -32 -10 0 -28 -9 -39 -19 -23 -20 -136 -53 -136 -39 0 12
-55 10 -84 -4 -14 -6 -28 -20 -32 -30 -4 -15 -12 -19 -32 -15 -33 6 -72 -11
-65 -29 3 -8 -1 -14 -10 -14 -31 0 -62 -25 -62 -49 0 -26 19 -39 30 -22 12 20
22 11 17 -14 -3 -18 -9 -24 -21 -21 -66 20 -66 20 -140 -44 -78 -67 -151 -105
-221 -115 -105 -15 -245 -38 -395 -66 -540 -99 -1119 -90 -1405 23 -59 23
-159 93 -201 141 -40 44 -173 324 -138 290 7 -7 20 -34 29 -60 10 -26 23 -47
29 -45 7 1 10 -2 7 -7 -6 -9 11 -50 39 -101 8 -14 15 -19 15 -12 0 20 17 14
23 -9 3 -12 10 -18 16 -15 6 4 8 13 5 21 -5 12 -1 12 20 2 14 -7 26 -17 26
-23 0 -14 64 -28 68 -16 1 5 21 6 45 1 23 -4 59 -8 80 -9 20 0 37 -4 37 -10 0
-5 16 -10 35 -10 24 0 35 -5 35 -15 0 -8 5 -15 11 -15 7 0 9 9 6 21 -6 21 -4
21 71 14 42 -4 80 -12 83 -17 4 -6 30 -8 65 -4 33 4 80 6 107 6 41 -1 47 2 47
20 0 11 5 20 10 20 6 0 10 -9 10 -20 0 -18 7 -20 80 -20 73 0 80 -2 80 -20 0
-17 7 -20 49 -20 39 0 51 4 64 23 12 18 18 20 28 10 7 -7 32 -13 56 -13 24 0
43 -4 43 -10 0 -18 31 -10 51 13 12 15 21 18 26 11 7 -10 82 -25 123 -25 49 0
110 15 110 27 0 8 5 14 11 14 6 0 9 -7 5 -15 -4 -12 3 -15 34 -15 22 0 40 5
40 10 0 6 19 10 41 10 34 0 41 3 37 18 -5 16 4 17 111 12 111 -5 116 -6 116
-27 0 -11 3 -25 8 -29 4 -4 7 0 7 10 0 15 9 17 78 13 44 -3 82 0 90 6 19 15
27 0 8 -18 -20 -20 -20 -26 -2 -19 18 7 27 30 19 50 -3 9 -12 13 -22 9 -13 -5
-13 -4 -4 6 10 10 17 9 32 -5 11 -10 24 -15 30 -11 7 3 8 0 5 -9 -3 -9 -10
-16 -14 -16 -4 0 -10 -7 -14 -15 -3 -8 -4 -15 -2 -15 2 0 30 28 63 63 l59 63
-24 18 c-23 18 -23 18 -11 -3 7 -11 9 -24 5 -28 -5 -4 -10 -3 -13 2 -2 6 -8
17 -13 25 -9 13 -11 13 -20 0 -5 -8 -10 -19 -10 -25 0 -5 4 -3 10 5 5 8 12 11
16 7 4 -4 -3 -18 -16 -32 -25 -27 -41 -32 -37 -12 1 7 -8 11 -25 10 -25 -2
-28 2 -28 28 0 26 3 29 25 23 19 -5 25 -2 25 10 0 9 5 16 11 16 6 0 17 7 25
15 9 8 24 15 35 15 10 0 19 4 19 8 0 4 29 8 66 9 77 1 93 10 36 19 -49 8 -46
24 3 24 19 0 37 5 41 11 4 6 21 9 43 5 20 -3 30 -3 24 0 -18 8 -16 24 2 24 8
0 15 -4 15 -10 0 -5 7 -10 15 -10 23 0 18 17 -7 25 -15 4 -19 8 -10 12 8 3 18
1 23 -4 6 -6 21 -8 35 -5 18 3 22 7 13 13 -8 5 2 10 27 15 21 3 44 9 49 13 6
3 17 6 25 8 8 1 16 7 18 13 2 5 8 8 13 5 5 -3 3 -14 -3 -25 -17 -27 -6 -33 30
-15 18 10 29 21 26 29 -4 9 3 14 20 14 14 0 26 -4 26 -9 0 -5 -7 -9 -15 -9 -8
0 -15 -5 -15 -11 0 -7 8 -6 23 4 13 9 21 23 19 33 -3 15 -1 17 9 7 16 -16 46
-17 55 -2 4 8 -1 9 -17 4 l-24 -7 23 17 c13 9 29 18 35 19 42 8 55 18 49 38
-3 15 -2 19 7 14 6 -4 9 -12 6 -17 -4 -5 -2 -9 3 -9 6 0 12 7 16 15 3 8 10 15
16 15 6 0 8 -4 5 -10 -3 -5 1 -10 9 -10 9 0 16 7 16 15 0 8 7 15 15 15 8 0 15
4 15 8 0 5 10 14 23 21 20 11 19 11 -10 6 -42 -6 -42 1 1 19 30 13 33 17 31
50 -2 20 1 38 6 41 5 4 6 0 3 -8 -8 -23 45 -18 57 4 5 11 15 19 22 19 7 0 20
9 30 20 9 11 27 20 39 19 l23 0 -22 -9z m-9372 -37 c13 -16 12 -17 -3 -4 -17
13 -22 21 -14 21 2 0 10 -8 17 -17z m9389 7 c0 -5 -5 -10 -11 -10 -5 0 -7 5
-4 10 3 6 8 10 11 10 2 0 4 -4 4 -10z m278 -50 c14 0 14 -2 3 -9 -8 -5 -20 -7
-28 -4 -7 3 -13 -2 -13 -11 0 -9 -6 -13 -14 -10 -8 3 -17 1 -21 -5 -7 -12 -35
-15 -35 -3 0 13 64 51 78 46 8 -2 21 -4 30 -4z m62 -6 c0 -2 -9 -4 -20 -4 -11
0 -20 4 -20 9 0 5 9 7 20 4 11 -3 20 -7 20 -9z m-390 -83 c0 -5 -13 -8 -30 -7
-36 1 -37 4 -7 15 23 9 37 6 37 -8z m-90 -21 c0 -5 6 -10 14 -10 7 0 19 -7 26
-15 8 -9 9 -15 2 -15 -6 0 -14 5 -18 11 -3 6 -18 9 -33 6 -14 -3 -35 -1 -46 3
-18 8 -17 9 8 9 15 1 27 6 27 11 0 6 5 10 10 10 6 0 10 -4 10 -10z m234 -15
c-4 -8 -13 -15 -21 -15 -13 0 -13 3 -3 15 7 8 16 15 21 15 5 0 6 -7 3 -15z
m-64 -24 c0 -5 -7 -12 -16 -15 -14 -5 -15 -4 -4 9 14 17 20 19 20 6z m135 -1
c3 -5 2 -10 -4 -10 -5 0 -13 5 -16 10 -3 6 -2 10 4 10 5 0 13 -4 16 -10z
m-188 -37 c-8 -9 -20 -12 -26 -9 -19 12 -12 21 15 23 24 1 25 -1 11 -14z
m-3327 -43 c0 -8 -7 -2 -15 14 -19 36 -19 45 0 20 8 -10 14 -26 15 -34z m3030
-28 c0 -8 -71 -52 -84 -52 -3 0 -6 5 -6 10 0 6 9 10 20 10 11 0 25 9 32 20 13
20 38 28 38 12z m-473 -28 c-3 -3 -12 -4 -19 -1 -8 3 -5 6 6 6 11 1 17 -2 13
-5z m363 -8 c-7 -7 -13 -7 -20 0 -6 6 -3 10 10 10 13 0 16 -4 10 -10z m-2798
-88 c-2 -10 -6 -18 -7 -18 -1 0 -5 8 -7 18 -3 11 0 19 7 19 7 0 10 -8 7 -19z
m2199 -131 c-10 -9 -11 -8 -5 6 3 10 9 15 12 12 3 -3 0 -11 -7 -18z m-6570
-536 c29 -29 29 -30 29 -156 0 -168 20 -215 94 -215 68 0 96 73 96 254 0 107
7 126 45 126 41 0 45 -16 45 -184 0 -135 -3 -168 -19 -202 -46 -101 -177 -133
-278 -67 -73 47 -78 63 -81 281 -4 191 -3 192 18 192 12 0 35 -13 51 -29z
m594 -111 c36 -50 68 -97 71 -105 13 -33 24 -11 24 48 0 34 3 79 7 100 6 37 7
38 42 35 l36 -3 3 -120 c1 -66 -1 -158 -5 -205 l-8 -85 -30 0 c-27 0 -37 12
-110 122 -44 67 -84 125 -88 130 -5 4 -7 -49 -5 -117 l3 -125 -40 0 -40 0 -3
199 c-3 215 -2 216 50 216 22 0 38 -15 93 -90z m1299 64 c13 -13 16 -45 16
-199 0 -175 -1 -184 -20 -190 -52 -17 -70 17 -70 133 0 28 -4 52 -8 52 -5 0
-18 -11 -30 -25 -30 -35 -47 -31 -82 16 l-29 41 6 -65 c3 -38 1 -85 -7 -116
-12 -50 -13 -52 -44 -49 l-31 3 -3 189 c-3 202 0 216 46 216 18 0 40 -16 77
-56 l51 -56 28 32 c15 18 33 45 42 61 16 32 35 37 58 13z m2478 -151 l3 -168
35 -2 c19 -2 68 -6 108 -9 l73 -6 -3 -36 -3 -37 -139 -3 c-107 -3 -141 0 -147
10 -5 7 -9 104 -9 216 l0 202 40 0 40 0 2 -167z m-2281 140 c15 -17 27 -300
15 -348 -5 -21 -12 -25 -46 -25 l-40 0 0 183 c0 188 4 207 41 207 9 0 23 -7
30 -17z m323 6 c78 -22 124 -102 96 -169 -7 -16 -29 -45 -50 -63 l-37 -34 34
-36 c36 -40 42 -71 16 -86 -23 -12 -48 1 -94 50 -20 22 -41 39 -47 39 -6 0
-12 -21 -14 -47 -3 -46 -5 -48 -34 -51 -23 -2 -34 2 -40 15 -4 10 -10 98 -12
197 -3 142 -1 180 10 187 19 12 126 11 172 -2z m922 -24 c156 -76 159 -298 5
-368 -59 -27 -216 -32 -231 -7 -15 24 -13 383 3 399 21 23 158 8 223 -24z
m1580 10 c17 -18 23 -32 19 -45 -4 -13 14 -70 49 -158 62 -153 66 -177 35
-185 -30 -8 -41 -1 -67 38 -19 30 -28 35 -60 35 -54 0 -110 -18 -122 -39 -5
-10 -16 -21 -25 -25 -16 -6 -55 13 -55 26 0 9 100 249 135 326 29 60 51 67 91
27z m579 1 c39 -17 64 -50 72 -99 7 -47 -26 -121 -66 -145 l-31 -19 30 -28
c36 -34 46 -61 30 -80 -22 -26 -49 -16 -105 40 -30 30 -58 55 -63 55 -5 0 -9
-26 -8 -57 l1 -58 -38 -3 c-32 -3 -38 0 -47 23 -6 14 -10 107 -10 205 l0 179
33 4 c52 8 165 -2 202 -17z m-4397 2 c13 -17 93 -205 123 -289 20 -57 21 -69
10 -83 -22 -26 -49 -19 -73 20 l-23 35 -74 -3 c-47 -2 -76 -8 -79 -16 -2 -6
-12 -22 -22 -34 -15 -20 -21 -21 -44 -10 -14 6 -26 17 -26 24 0 11 24 65 137
311 27 57 49 71 71 45z m1734 -5 c41 -50 166 -361 153 -383 -13 -21 -49 -9
-86 31 l-37 40 -69 -6 c-61 -7 -70 -10 -88 -38 -24 -37 -35 -41 -59 -24 -23
17 -18 36 71 237 73 164 84 179 115 143z m1299 -12 c27 -28 37 -60 23 -74 -4
-3 -24 3 -45 13 -21 11 -48 20 -59 20 -31 0 -74 -25 -104 -60 -49 -59 -24
-150 51 -185 37 -18 40 -18 104 9 22 10 64 -26 56 -48 -9 -23 -84 -56 -130
-56 -58 0 -132 42 -160 92 -51 88 -41 187 26 257 43 45 81 60 150 61 52 0 62
-3 88 -29z m1774 5 c30 -45 145 -324 145 -350 0 -18 -8 -30 -25 -38 -22 -10
-29 -8 -50 12 -14 13 -25 29 -25 36 0 25 -25 31 -90 24 -35 -5 -66 -13 -68
-19 -2 -6 -11 -20 -21 -32 -14 -17 -24 -20 -44 -15 -41 10 -37 30 34 183 16
34 38 85 49 113 45 115 65 133 95 86z m203 -306 c26 -16 43 -30 39 -30 -10 0
-97 50 -97 56 0 8 11 3 58 -26z m-3966 -322 c26 -29 62 -74 80 -100 18 -26 36
-48 41 -48 4 0 7 41 7 90 0 98 6 108 55 96 l25 -6 -2 -193 -3 -192 -35 -3
c-31 -3 -38 1 -54 30 -45 80 -129 199 -135 193 -3 -4 -6 -53 -6 -108 l0 -102
-40 0 -40 0 -3 189 c-2 145 1 191 10 198 28 17 54 6 100 -44z m1978 42 c12 -7
15 -37 16 -145 1 -133 2 -137 27 -162 33 -33 80 -35 110 -4 20 20 22 34 27
164 l5 142 43 3 42 3 0 -143 c0 -129 -2 -148 -22 -188 -32 -64 -85 -92 -161
-87 -69 4 -103 26 -134 87 -21 40 -23 59 -23 185 0 78 3 145 7 148 9 10 46 8
63 -3z m-3028 -22 c26 -40 106 -232 124 -297 16 -56 16 -63 2 -77 -22 -22 -48
-11 -80 35 l-27 38 -67 -18 c-37 -10 -77 -28 -90 -40 -28 -26 -64 -18 -64 14
0 29 125 325 146 349 23 24 39 23 56 -4z m574 9 c2 -2 5 -62 6 -134 3 -151 13
-173 78 -173 69 0 74 11 80 172 l5 143 33 3 c27 3 34 -1 42 -23 13 -34 13
-187 0 -256 -25 -133 -169 -181 -270 -91 -38 34 -42 43 -52 107 -7 42 -8 109
-3 169 l7 98 35 -5 c20 -4 37 -8 39 -10z m1339 4 c25 -5 31 -12 33 -39 l3 -32
-100 0 -101 0 0 -45 0 -45 68 0 c72 0 92 -10 92 -45 0 -20 -8 -23 -77 -31
l-78 -9 -5 -68 c-5 -68 -16 -87 -50 -87 -36 0 -40 20 -40 217 l0 193 113 -1
c61 -1 126 -4 142 -8z m251 -8 c14 -15 16 -31 10 -118 -3 -55 -3 -115 0 -134
9 -43 43 -65 89 -57 61 12 65 23 65 165 0 140 8 165 51 159 23 -3 24 -7 32
-98 12 -143 2 -214 -35 -256 -41 -46 -77 -64 -130 -64 -55 0 -108 28 -133 71
-17 28 -21 56 -23 167 -5 159 -1 182 32 182 14 0 32 -8 42 -17z m601 11 c78
-7 81 -8 86 -33 3 -14 3 -28 0 -31 -2 -3 -30 -7 -61 -10 l-57 -5 -3 -158 -3
-158 -37 3 -37 3 -6 150 c-4 83 -7 153 -8 157 0 3 -23 9 -51 13 -47 6 -50 9
-50 35 0 16 6 31 13 33 18 8 120 8 214 1z m891 -9 c84 -34 111 -126 59 -204
-14 -22 -36 -42 -47 -46 -20 -6 -20 -8 13 -40 48 -47 56 -88 17 -96 -29 -6
-55 12 -98 67 -57 72 -72 71 -72 -6 0 -59 -1 -60 -27 -60 -54 0 -56 5 -61 192
-6 212 -7 208 104 208 43 0 90 -6 112 -15z m466 3 c140 -42 181 -246 69 -349
-85 -80 -192 -78 -277 4 -135 129 -45 346 148 356 10 1 37 -5 60 -11z m-7524
-498 c0 -6 -8 -10 -17 -8 -12 2 -19 -4 -21 -19 -2 -15 2 -23 12 -23 10 0 13 6
10 15 -4 9 0 15 10 15 9 0 16 -8 16 -20 0 -15 -7 -20 -29 -20 -34 0 -51 31
-31 55 14 17 50 20 50 5z m70 -25 c0 -19 -4 -35 -10 -35 -11 0 -13 30 -4 54
10 25 14 19 14 -19z m-169 -16 c22 -31 22 -31 1 -25 -11 4 -23 2 -27 -4 -11
-18 -22 -11 -19 13 1 12 3 28 3 35 2 21 19 13 42 -19z m247 9 c8 -18 11 -19
11 -5 1 9 6 17 11 17 12 0 12 -2 0 -34 -11 -31 -30 -34 -30 -6 0 11 -4 20 -10
20 -5 0 -10 -7 -10 -15 0 -8 -4 -15 -9 -15 -6 0 -6 12 0 30 13 36 22 38 37 8z
m-343 -38 c19 -37 19 -51 0 -26 -14 18 -15 18 -15 2 0 -13 -5 -16 -22 -11 -19
6 -21 5 -10 -6 14 -15 16 -29 4 -29 -9 0 -32 44 -32 61 0 6 7 6 19 -1 25 -13
34 -13 26 0 -7 11 0 40 9 40 3 0 12 -13 21 -30z m461 9 c4 -8 -1 -9 -17 -4
-20 6 -22 5 -11 -6 17 -19 15 -29 -5 -23 -17 5 -17 5 0 -9 24 -20 21 -30 -5
-16 -13 6 -24 13 -26 14 -1 1 3 14 9 29 12 27 42 35 55 15z m4147 -56 c4 -21
4 -98 0 -170 l-6 -133 99 0 c108 0 124 -6 124 -51 0 -23 -5 -27 -37 -33 -68
-11 -238 -7 -251 6 -9 9 -12 69 -12 209 0 191 1 198 22 213 30 21 54 5 61 -41z
m367 18 c5 -11 10 -76 10 -144 0 -111 2 -127 21 -151 39 -49 110 -26 129 42 5
20 10 87 10 149 0 103 2 112 20 118 61 19 77 -30 66 -203 -8 -125 -22 -162
-72 -196 -79 -53 -216 -21 -250 60 -14 34 -21 295 -8 328 9 23 61 21 74 -3z
m1744 9 l26 -10 0 -160 0 -160 94 0 c117 0 126 -3 126 -45 l0 -32 -133 -7
c-73 -4 -141 -4 -150 0 -20 7 -23 51 -18 269 2 89 8 143 15 147 14 10 10 10
40 -2z m-2891 -14 c36 -14 87 -69 87 -92 0 -19 -29 -18 -70 4 -57 31 -85 34
-111 13 -41 -33 -24 -49 114 -102 41 -15 62 -30 72 -50 20 -37 19 -99 -1 -128
-33 -47 -130 -65 -198 -37 -51 21 -107 75 -104 100 5 32 40 31 103 -5 56 -31
57 -32 91 -16 19 9 34 21 34 26 0 17 -49 49 -100 66 -84 28 -139 111 -109 164
35 62 120 88 192 57z m403 -24 c49 -71 161 -353 148 -373 -3 -5 -17 -9 -32 -9
-19 1 -33 10 -47 33 -20 32 -22 32 -98 32 -76 0 -78 -1 -103 -32 -29 -37 -36
-39 -58 -18 -13 13 -13 21 -2 53 32 91 129 328 138 340 15 18 29 11 54 -26z
m1326 14 c116 -55 162 -206 95 -308 -37 -55 -104 -81 -210 -82 -89 -1 -91 0
-98 24 -4 14 -7 105 -8 202 -1 160 1 177 17 182 37 11 168 -1 204 -18z m890
12 c28 -8 48 -23 65 -49 22 -34 24 -42 13 -73 -6 -19 -17 -40 -25 -46 -11 -9
-8 -16 17 -39 24 -22 32 -37 35 -77 9 -93 -41 -124 -203 -124 -87 0 -92 1 -98
23 -3 12 -6 104 -6 204 0 136 3 183 13 186 24 10 150 7 189 -5z m892 6 c21 -8
21 -60 0 -68 -9 -3 -51 -6 -95 -6 l-79 0 0 -49 c0 -46 2 -49 21 -46 12 3 48 2
81 -2 56 -6 59 -7 56 -32 -3 -25 -7 -26 -80 -35 -75 -9 -76 -9 -81 -40 -2 -17
-3 -34 0 -38 2 -5 49 -8 103 -8 76 0 102 -4 114 -16 19 -19 20 -38 3 -52 -15
-12 -282 -21 -293 -9 -19 18 -34 383 -17 400 8 9 246 9 267 1z m-6806 -16 c32
-32 -2 -83 -37 -56 -9 7 -17 13 -19 14 -6 3 30 54 37 54 4 0 12 -5 19 -12z
m5494 -118 c61 -135 103 -254 93 -270 -14 -23 -55 -10 -77 25 -13 19 -27 36
-33 38 -5 2 -41 1 -80 -3 -58 -7 -73 -12 -90 -35 -18 -21 -27 -25 -48 -20 -15
4 -27 10 -27 12 0 12 50 141 78 203 16 36 35 83 42 105 16 51 39 77 64 73 16
-2 35 -34 78 -128z m-6127 90 c27 -30 12 -34 -15 -5 -13 14 -19 25 -13 25 5 0
18 -9 28 -20z m-84 -99 c13 -11 22 -22 19 -25 -3 -3 -19 6 -35 19 -17 13 -25
24 -19 25 7 0 22 -9 35 -19z m468 -7 c27 -34 27 -72 -1 -101 -30 -33 -80 -31
-107 3 -28 35 -26 69 4 99 33 34 77 33 104 -1z m335 5 c-19 -22 -19 -22 5 -14
17 5 22 4 19 -6 -4 -12 -46 -21 -61 -12 -10 6 32 53 46 53 6 0 2 -10 -9 -21z
m6 -48 c0 -4 12 -7 28 -4 23 3 24 2 7 -6 -40 -19 -81 -10 -58 12 9 10 23 9 23
-2z m-814 -12 c2 -4 -3 -10 -12 -13 -10 -4 -13 -13 -9 -26 8 -26 0 -25 -32 4
-14 13 -22 29 -19 35 8 12 64 12 72 0z m659 -134 c24 -114 20 -117 -91 -81
-49 16 -88 34 -91 44 -5 11 14 35 61 79 86 80 96 76 121 -42z m224 81 c-12
-10 -69 -24 -69 -16 0 5 8 11 18 13 22 6 57 8 51 3z m-533 -105 c24 -55 30
-61 85 -85 76 -33 79 -56 12 -85 -72 -31 -73 -32 -98 -91 -33 -78 -55 -79 -90
-2 -24 54 -31 61 -86 87 -79 38 -78 56 6 94 36 16 65 34 65 39 0 5 9 30 20 56
30 66 53 63 86 -13z m549 1 c-3 -3 -10 0 -14 7 -5 8 -17 11 -30 6 -12 -4 -21
-2 -21 4 0 6 9 11 20 11 11 0 24 8 27 17 5 14 8 12 16 -11 5 -15 6 -30 2 -34z
m-957 18 c15 -1 15 -2 0 -11 -22 -12 -23 -29 -3 -29 8 0 15 -4 15 -10 0 -11
-14 -11 -50 0 -17 5 -19 8 -7 9 21 1 23 31 1 31 -8 0 -12 5 -9 11 4 6 14 8 22
5 8 -3 22 -6 31 -6z m947 -70 c17 -7 17 -9 3 -9 -22 -1 -24 -31 -2 -31 8 0 12
-4 9 -10 -3 -5 -16 -8 -28 -6 -12 3 -26 5 -32 6 -5 0 -2 5 8 11 21 12 22 29 2
29 -8 0 -15 5 -15 10 0 12 27 12 55 0z m-985 -41 c0 -7 10 -9 25 -7 14 3 25 1
25 -3 0 -5 -11 -9 -25 -9 -17 0 -25 -6 -25 -17 0 -22 -6 -14 -14 20 -4 16 -2
27 4 27 5 0 10 -5 10 -11z m70 -78 c0 -11 -59 -26 -67 -18 -3 3 10 10 28 16
19 5 35 10 37 10 1 1 2 -3 2 -8z m868 -36 c33 -31 20 -50 -29 -40 -27 6 -30 9
-15 17 11 6 15 16 11 29 -8 26 0 24 33 -6z m-838 -35 c0 -5 -4 -10 -10 -10 -5
0 -10 -5 -10 -11 0 -5 5 -7 10 -4 24 15 30 -8 9 -31 -28 -30 -49 -32 -23 -3
19 21 19 22 -3 15 -23 -7 -32 7 -13 19 19 12 10 22 -17 18 -24 -3 -25 -2 -8 6
27 13 65 13 65 1z m795 -52 c24 -11 34 -28 16 -28 -11 0 -59 39 -49 40 4 0 19
-5 33 -12z m-691 -81 c18 -13 18 -15 1 -40 -20 -32 -23 -32 -47 -10 -22 20
-22 27 -2 47 19 19 25 20 48 3z m616 -40 c0 -6 -9 -2 -20 8 -11 10 -20 23 -20
28 0 6 9 2 20 -8 11 -10 20 -23 20 -28z m-520 -27 c0 -5 -8 -18 -18 -30 -17
-21 -52 -20 -52 2 0 6 7 4 16 -3 15 -12 16 -11 10 9 -6 18 -4 21 11 16 17 -5
17 -5 1 9 -26 21 -22 28 7 15 14 -6 25 -14 25 -18z m460 11 c17 -33 12 -40
-19 -28 -17 6 -28 14 -25 19 3 4 12 4 22 1 15 -6 15 -5 3 10 -8 11 -9 17 -3
17 6 0 16 -9 22 -19z m-60 -27 c0 -8 5 -12 10 -9 6 3 10 -1 10 -10 0 -19 -16
-11 -30 16 -7 13 -7 19 0 19 5 0 10 -7 10 -16z m-340 -25 c0 -10 5 -19 10 -19
6 0 10 8 10 17 0 9 2 14 5 11 8 -8 -5 -58 -15 -58 -5 0 -13 12 -18 28 -6 16
-11 20 -11 10 -1 -9 -6 -20 -11 -23 -10 -6 -4 37 7 58 7 13 23 -3 23 -24z
m280 -14 c0 -43 -10 -44 -39 -5 l-22 31 25 -7 c16 -4 26 -2 26 5 0 6 2 11 5
11 3 0 5 -16 5 -35z m-199 -32 c-9 -16 -10 -16 -11 -1 0 9 3 25 7 35 7 16 8
17 11 1 2 -10 -1 -25 -7 -35z m108 33 c9 -11 10 -20 1 -35 -11 -22 -35 -28
-44 -12 -3 5 2 8 12 7 11 0 18 7 20 22 3 17 -2 22 -19 22 -18 0 -19 -2 -9 -15
8 -9 9 -15 2 -15 -15 0 -25 18 -17 30 9 15 41 12 54 -4z m9291 -273 c-8 -3
-24 -13 -35 -22 -20 -16 -20 -16 -1 7 11 12 26 22 35 21 14 0 14 -1 1 -6z
m510 -63 l-8 -55 -1 51 c-1 43 6 71 15 61 1 -1 -1 -27 -6 -57z m900 46 c0 -3
-4 -8 -10 -11 -5 -3 -10 -1 -10 4 0 6 5 11 10 11 6 0 10 -2 10 -4z m-249 -39
c-10 -9 -11 -8 -5 6 3 10 9 15 12 12 3 -3 0 -11 -7 -18z m-794 -9 c-3 -8 -6
-5 -6 6 -1 11 2 17 5 13 3 -3 4 -12 1 -19z m58 12 c3 -5 2 -10 -4 -10 -5 0
-13 5 -16 10 -3 6 -2 10 4 10 5 0 13 -4 16 -10z m615 3 c-8 -3 -22 -11 -30
-17 -13 -10 -13 -9 -1 7 7 9 21 17 30 16 13 0 14 -1 1 -6z m40 -3 c0 -5 -2
-10 -4 -10 -3 0 -8 5 -11 10 -3 6 -1 10 4 10 6 0 11 -4 11 -10z m150 -30 c-5
-22 -8 -27 -9 -13 -1 21 9 56 14 51 2 -2 0 -19 -5 -38z m310 30 c18 -12 2 -12
-25 0 -13 6 -15 9 -5 9 8 0 22 -4 30 -9z m-1470 -13 c0 -7 -7 -22 -15 -33 -13
-17 -13 -16 -3 14 13 34 18 40 18 19z m538 -23 c15 -32 10 -30 -16 6 -13 17
-17 27 -8 24 7 -3 18 -16 24 -30z m-151 4 c-3 -8 -6 -5 -6 6 -1 11 2 17 5 13
3 -3 4 -12 1 -19z m926 -16 c4 -21 3 -31 -3 -27 -6 3 -10 20 -10 37 0 38 5 34
13 -10z m68 11 c-8 -15 -10 -15 -11 -2 0 17 10 32 18 25 2 -3 -1 -13 -7 -23z
m-1311 13 c0 -3 -4 -8 -10 -11 -5 -3 -10 -1 -10 4 0 6 5 11 10 11 6 0 10 -2
10 -4z m277 -28 c-3 -7 -5 -2 -5 12 0 14 2 19 5 13 2 -7 2 -19 0 -25z m259
-16 c-12 -11 -18 7 -10 30 l8 23 4 -23 c2 -13 1 -26 -2 -30z m-306 5 c0 -5 -4
-5 -10 -2 -5 3 -10 14 -10 23 0 15 2 15 10 2 5 -8 10 -19 10 -23z m504 -6 c-5
-6 -34 20 -34 30 0 5 8 1 18 -8 10 -10 17 -20 16 -22z m76 35 c0 -2 -8 -10
-17 -17 -16 -13 -17 -12 -4 4 13 16 21 21 21 13z m50 -12 c0 -8 -5 -12 -10 -9
-6 4 -8 11 -5 16 9 14 15 11 15 -7z m320 1 c0 -8 -4 -15 -10 -15 -5 0 -7 7 -4
15 4 8 8 15 10 15 2 0 4 -7 4 -15z m-1116 -10 c3 -8 1 -15 -4 -15 -6 0 -10 7
-10 15 0 8 2 15 4 15 2 0 6 -7 10 -15z m86 11 c0 -3 -4 -8 -10 -11 -5 -3 -10
-1 -10 4 0 6 5 11 10 11 6 0 10 -2 10 -4z m289 -22 c10 -9 -35 -3 -49 6 -11 8
-7 9 15 4 17 -4 32 -8 34 -10z"/>
<path d="M11410 4060 c0 -5 5 -10 10 -10 6 0 10 5 10 10 0 6 -4 10 -10 10 -5
0 -10 -4 -10 -10z"/>
<path d="M2834 3733 c-1 -13 -1 -23 0 -21 1 2 7 10 14 19 10 13 10 18 0 22 -8
3 -14 -5 -14 -20z"/>
<path d="M3050 3640 c0 -5 7 -10 15 -10 8 0 15 5 15 10 0 6 -7 10 -15 10 -8 0
-15 -4 -15 -10z"/>
<path d="M3328 3433 c7 -3 16 -2 19 1 4 3 -2 6 -13 5 -11 0 -14 -3 -6 -6z"/>
<path d="M3543 3428 c2 -7 10 -13 17 -13 7 0 15 6 18 13 2 7 -5 12 -18 12 -13
0 -20 -5 -17 -12z"/>
<path d="M4160 3428 c0 -11 16 -17 61 -22 88 -9 99 -8 99 9 0 8 -8 15 -19 15
-10 0 -46 3 -80 6 -50 6 -61 4 -61 -8z"/>
<path d="M3260 3420 c8 -5 22 -9 30 -9 10 0 8 3 -5 9 -27 12 -43 12 -25 0z"/>
<path d="M3340 3411 c0 -5 7 -12 16 -15 14 -5 15 -4 4 9 -14 17 -20 19 -20 6z"/>
<path d="M3290 3390 c-11 -7 -4 -10 25 -10 29 0 36 3 25 10 -8 5 -19 10 -25
10 -5 0 -17 -5 -25 -10z"/>
<path d="M3379 3364 c-10 -12 -9 -13 5 -8 12 5 15 2 10 -10 -9 -22 3 -20 15 3
13 24 -12 37 -30 15z"/>
<path d="M3420 3330 c0 -5 5 -10 11 -10 5 0 7 5 4 10 -3 6 -8 10 -11 10 -2 0
-4 -4 -4 -10z"/>
<path d="M3491 3267 c2 -1 13 -9 24 -17 19 -14 19 -14 6 3 -7 9 -18 17 -24 17
-6 0 -8 -1 -6 -3z"/>
<path d="M10020 3374 c0 -8 5 -12 10 -9 6 4 8 11 5 16 -9 14 -15 11 -15 -7z"/>
<path d="M7800 3270 c-9 -6 -10 -10 -3 -10 6 0 15 5 18 10 8 12 4 12 -15 0z"/>
<path d="M8540 3215 c0 -14 5 -25 10 -25 6 0 10 11 10 25 0 14 -4 25 -10 25
-5 0 -10 -11 -10 -25z"/>
<path d="M9058 3193 c12 -2 32 -2 45 0 12 2 2 4 -23 4 -25 0 -35 -2 -22 -4z"/>
<path d="M9278 3093 c7 -3 16 -2 19 1 4 3 -2 6 -13 5 -11 0 -14 -3 -6 -6z"/>
<path d="M9148 3073 c7 -3 16 -2 19 1 4 3 -2 6 -13 5 -11 0 -14 -3 -6 -6z"/>
<path d="M5700 2560 l0 -70 29 0 c37 0 95 40 99 68 5 34 -42 72 -89 72 l-39 0
0 -70z"/>
<path d="M6570 2500 l0 -130 36 0 c82 0 144 55 144 128 0 39 -5 50 -44 88 -39
39 -48 44 -90 44 l-46 0 0 -130z"/>
<path d="M8213 2480 c-13 -31 -23 -59 -23 -62 0 -2 20 0 44 6 l44 10 -14 38
c-24 69 -28 70 -51 8z"/>
<path d="M8730 2561 c0 -69 0 -69 29 -76 35 -7 82 14 105 47 22 31 20 45 -9
73 -19 20 -34 25 -75 25 l-50 0 0 -69z"/>
<path d="M4412 2474 c-13 -26 -21 -49 -18 -51 8 -8 86 8 86 18 0 18 -29 79
-37 79 -5 0 -19 -21 -31 -46z"/>
<path d="M6147 2475 c-15 -31 -27 -56 -27 -58 0 -1 22 0 50 1 27 2 50 7 50 11
0 17 -32 101 -39 101 -4 0 -19 -25 -34 -55z"/>
<path d="M9214 2478 c-15 -32 -26 -59 -23 -61 2 -2 23 -2 47 1 42 4 43 5 36
36 -3 17 -12 42 -19 56 -13 24 -13 24 -41 -32z"/>
<path d="M4397 1864 c-16 -31 -26 -58 -24 -61 4 -4 97 17 97 21 0 13 -34 96
-39 96 -4 0 -19 -25 -34 -56z"/>
<path d="M8010 1955 c0 -76 9 -84 71 -66 102 31 74 131 -36 131 l-35 0 0 -65z"/>
<path d="M8469 1983 c-37 -23 -59 -64 -59 -111 0 -68 71 -124 137 -107 46 11
82 44 94 86 10 33 10 45 -4 74 -31 66 -112 93 -168 58z"/>
<path d="M5058 1283 c-9 -10 -23 -33 -32 -50 -16 -32 -16 -33 2 -33 11 0 33 3
49 6 29 6 29 6 19 50 -12 49 -16 52 -38 27z"/>
<path d="M6300 1290 c0 -93 3 -129 13 -133 23 -9 109 21 135 47 66 66 7 180
-105 205 l-43 9 0 -128z"/>
<path d="M7228 1414 c-5 -4 -8 -27 -8 -51 0 -42 1 -43 33 -43 60 0 99 49 63
79 -18 15 -79 25 -88 15z"/>
<path d="M7233 1229 c-14 -14 -17 -38 -7 -63 11 -29 114 -13 114 17 0 36 -83
71 -107 46z"/>
<path d="M1376 1444 c-8 -21 -1 -28 19 -20 9 3 15 11 13 18 -7 19 -25 20 -32
2z"/>
<path d="M6775 1249 l-28 -52 47 5 c26 3 49 8 52 10 7 7 -21 81 -33 85 -5 2
-22 -20 -38 -48z"/>
<path d="M755 730 c-11 -17 5 -32 21 -19 8 6 14 15 14 20 0 12 -27 11 -35 -1z"/>
<path d="M1205 620 c3 -5 8 -10 11 -10 2 0 4 5 4 10 0 6 -5 10 -11 10 -5 0 -7
-4 -4 -10z"/>
<path d="M10260 8888 c0 -7 5 -20 10 -28 8 -12 10 -11 10 7 0 12 -4 25 -10 28
-5 3 -10 0 -10 -7z"/>
<path d="M6130 8857 l-23 -32 29 27 c15 15 26 30 23 33 -3 2 -16 -10 -29 -28z"/>
<path d="M6045 8801 c-56 -32 -122 -97 -112 -108 4 -4 14 3 22 14 8 12 44 42
80 68 56 39 74 55 63 55 -2 0 -25 -13 -53 -29z"/>
<path d="M10327 8726 c-4 -10 -3 -14 2 -11 6 3 14 -14 19 -37 8 -37 10 -39 11
-13 0 17 -6 41 -13 54 -11 20 -14 21 -19 7z"/>
<path d="M11776 8342 c7 -4 15 -34 19 -67 26 -234 68 -488 86 -510 4 -6 10
-41 13 -79 2 -38 10 -74 15 -79 6 -6 11 -18 11 -26 0 -12 -3 -11 -13 3 -12 16
-13 9 -10 -45 3 -35 6 -69 8 -75 2 -6 24 -14 50 -17 50 -7 110 -36 214 -104
36 -24 68 -43 72 -43 17 0 -35 448 -96 823 -9 54 -14 105 -13 115 2 13 -22 23
-132 53 -74 20 -151 42 -170 48 -40 13 -71 15 -54 3z m141 -704 c-3 -8 -6 -5
-6 6 -1 11 2 17 5 13 3 -3 4 -12 1 -19z m26 -165 c-7 -2 -19 -2 -25 0 -7 3 -2
5 12 5 14 0 19 -2 13 -5z m292 -143 c3 -6 -1 -7 -9 -4 -18 7 -21 14 -7 14 6 0
13 -4 16 -10z"/>
<path d="M415 8139 l60 -10 -3 -92 c-2 -51 -8 -117 -13 -147 -14 -76 -28 -424
-19 -485 6 -40 8 -25 10 75 2 69 5 112 6 95 11 -91 25 -132 50 -144 14 -6 35
-11 47 -11 22 -1 22 -1 2 -16 -19 -16 -19 -16 5 -8 14 4 45 14 70 21 l45 13
-50 -5 -50 -5 39 14 c22 8 44 14 50 13 5 -1 12 7 14 18 2 11 9 23 15 27 8 5 8
13 0 30 -17 35 -11 182 8 205 9 10 19 25 22 33 3 9 6 10 6 3 1 -7 6 -13 12
-13 5 0 7 5 4 10 -4 6 -2 34 4 63 6 28 17 97 26 152 9 55 18 110 21 123 4 21
2 22 -83 23 -49 0 -113 5 -143 10 -30 5 -91 11 -135 13 l-80 5 60 -10z m335
-234 c0 -5 -5 -3 -10 5 -5 8 -10 20 -10 25 0 6 5 3 10 -5 5 -8 10 -19 10 -25z
m-13 -92 c-3 -10 -5 -2 -5 17 0 19 2 27 5 18 2 -10 2 -26 0 -35z m-80 -325
c-3 -7 -5 -2 -5 12 0 14 2 19 5 13 2 -7 2 -19 0 -25z"/>
<path d="M10468 8055 c-10 -13 -18 -30 -18 -39 0 -8 -5 -17 -10 -19 -6 -3 -5
-4 2 -3 12 2 54 74 47 80 -2 2 -12 -6 -21 -19z"/>
<path d="M11872 7740 c0 -14 2 -19 5 -12 2 6 2 18 0 25 -3 6 -5 1 -5 -13z"/>
<path d="M462 7415 c0 -16 2 -22 5 -12 2 9 2 23 0 30 -3 6 -5 -1 -5 -18z"/>
<path d="M508 7403 c7 -3 16 -2 19 1 4 3 -2 6 -13 5 -11 0 -14 -3 -6 -6z"/>
<path d="M480 7390 c0 -5 5 -10 12 -10 6 0 3 -7 -8 -15 -10 -8 -14 -14 -9 -14
6 0 18 5 27 12 15 12 15 14 -3 25 -11 7 -19 8 -19 2z"/>
<path d="M435 7339 c-4 -6 -5 -13 -2 -16 7 -7 27 6 27 18 0 12 -17 12 -25 -2z"/>
<path d="M12185 7013 c-11 -2 -67 -7 -125 -12 -69 -5 -97 -11 -83 -16 13 -4
21 -11 18 -15 -4 -6 17 -7 103 -1 7 1 10 6 7 11 -3 6 1 10 9 10 8 0 17 -4 20
-9 3 -5 23 -8 44 -6 20 1 27 0 15 -2 -13 -2 -23 -8 -23 -13 0 -16 21 -22 35
-10 8 6 19 9 25 5 5 -3 10 2 10 14 0 14 -8 21 -27 24 l-28 4 28 2 c15 0 27 6
27 11 0 10 -16 11 -55 3z"/>
<path d="M12217 6729 c-18 -48 -16 -146 5 -179 8 -12 9 -12 4 2 -3 10 0 43 6
74 8 42 8 61 0 75 -8 12 -8 19 -1 21 6 2 9 15 7 28 -3 22 -6 19 -21 -21z"/>
<path d="M12180 6730 c0 -5 5 -10 11 -10 5 0 7 5 4 10 -3 6 -8 10 -11 10 -2 0
-4 -4 -4 -10z"/>
<path d="M12180 6624 c0 -23 -2 -57 -5 -75 -4 -28 -3 -30 4 -9 l8 25 5 -25 c3
-14 6 2 6 35 1 33 -3 67 -8 75 -7 11 -10 4 -10 -26z"/>
<path d="M12202 6375 c0 -16 2 -22 5 -12 2 9 2 23 0 30 -3 6 -5 -1 -5 -18z"/>
<path d="M12415 5940 c3 -5 8 -10 11 -10 2 0 4 5 4 10 0 6 -5 10 -11 10 -5 0
-7 -4 -4 -10z"/>
<path d="M11675 5790 c-165 -29 -185 -34 -270 -68 -68 -26 -206 -94 -202 -99
4 -4 99 29 107 37 3 3 26 15 52 27 31 15 48 18 50 11 3 -7 10 -8 17 -4 11 7
11 10 0 18 -10 6 -2 7 23 3 21 -3 39 -1 43 5 10 17 25 11 18 -7 -5 -14 -1 -13
19 5 17 16 37 22 69 22 24 1 69 7 99 14 50 12 52 14 25 18 -29 5 -29 5 5 7 45
2 108 19 115 31 4 6 3 9 -2 9 -4 -1 -80 -14 -168 -29z m-188 -66 c-3 -3 -12
-4 -19 -1 -8 3 -5 6 6 6 11 1 17 -2 13 -5z"/>
<path d="M12167 5804 c-8 -8 1 -24 13 -24 4 0 10 7 14 15 5 15 -14 21 -27 9z"/>
<path d="M11478 5693 c7 -3 16 -2 19 1 4 3 -2 6 -13 5 -11 0 -14 -3 -6 -6z"/>
<path d="M11558 5647 c-38 -15 -35 -27 7 -27 28 0 35 4 35 20 0 22 -3 23 -42
7z"/>
<path d="M11165 5610 c-4 -6 3 -10 14 -10 25 0 27 6 6 13 -8 4 -17 2 -20 -3z"/>
<path d="M11235 5584 l-40 -13 40 5 c40 6 52 11 44 18 -2 2 -22 -3 -44 -10z"/>
<path d="M11960 5559 c0 -33 3 -40 17 -37 12 2 18 15 21 41 3 32 1 37 -17 37
-18 0 -21 -6 -21 -41z"/>
<path d="M11050 5550 c-30 -16 -52 -29 -49 -30 9 0 68 26 99 45 45 26 6 15
-50 -15z"/>
<path d="M11647 5550 c-3 -13 -14 -20 -28 -20 -12 0 -20 -3 -16 -6 3 -4 22 -3
42 0 26 5 35 12 35 26 0 26 -26 26 -33 0z"/>
<path d="M11760 5540 c0 -13 -7 -20 -20 -20 -17 0 -20 -7 -20 -40 0 -29 -4
-40 -15 -40 -8 0 -15 -5 -15 -10 0 -7 7 -7 20 0 11 6 28 10 38 8 12 -2 16 3
15 17 -2 11 0 31 3 44 5 22 8 23 62 19 31 -3 47 -3 35 -1 -15 3 -23 11 -23 24
0 16 -7 19 -40 19 -33 0 -40 -3 -40 -20z"/>
<path d="M11155 5530 c3 -5 10 -10 16 -10 5 0 9 5 9 10 0 6 -7 10 -16 10 -8 0
-12 -4 -9 -10z"/>
<path d="M11928 5513 c7 -3 16 -2 19 1 4 3 -2 6 -13 5 -11 0 -14 -3 -6 -6z"/>
<path d="M10935 5490 c-38 -19 -35 -19 28 -4 17 4 27 2 27 -5 0 -6 10 -11 22
-11 l22 0 -22 20 c-26 24 -27 24 -77 0z"/>
<path d="M11555 5477 c-16 -12 -31 -25 -33 -29 -2 -5 -20 -8 -41 -8 -33 0 -39
-4 -54 -35 -21 -43 -21 -45 -2 -45 8 0 15 9 15 20 0 17 7 20 48 20 34 0 54 6
70 20 12 11 26 20 32 20 5 0 10 14 10 30 0 36 -5 36 -45 7z"/>
<path d="M2345 5480 c-3 -5 1 -10 9 -10 9 0 16 5 16 10 0 6 -4 10 -9 10 -6 0
-13 -4 -16 -10z"/>
<path d="M11240 5480 c0 -5 4 -10 9 -10 6 0 13 5 16 10 3 6 -1 10 -9 10 -9 0
-16 -4 -16 -10z"/>
<path d="M1850 5450 c0 -5 7 -10 16 -10 8 0 12 5 9 10 -3 6 -10 10 -16 10 -5
0 -9 -4 -9 -10z"/>
<path d="M1825 5440 c-3 -5 -1 -10 4 -10 6 0 11 5 11 10 0 6 -2 10 -4 10 -3 0
-8 -4 -11 -10z"/>
<path d="M2068 5403 c7 -3 16 -2 19 1 4 3 -2 6 -13 5 -11 0 -14 -3 -6 -6z"/>
<path d="M11648 5393 c6 -2 18 -2 25 0 6 3 1 5 -13 5 -14 0 -19 -2 -12 -5z"/>
<path d="M1761 5374 c0 -11 3 -14 6 -6 3 7 2 16 -1 19 -3 4 -6 -2 -5 -13z"/>
<path d="M10730 5372 c-14 -2 -29 -8 -35 -14 -7 -7 1 -8 25 -3 51 11 60 24 10
17z"/>
<path d="M11661 5359 c-13 -5 -22 -12 -19 -15 3 -3 21 2 39 10 37 16 19 21
-20 5z"/>
<path d="M1637 5354 c-10 -11 -9 -24 4 -24 6 0 17 -7 25 -15 9 -8 20 -15 27
-15 6 0 3 6 -6 13 -9 6 -22 20 -30 30 -7 10 -16 15 -20 11z"/>
<path d="M10625 5352 c-11 -2 -24 -9 -30 -14 -7 -7 -1 -8 20 -3 44 10 53 26
10 17z"/>
<path d="M11588 5343 c7 -3 16 -2 19 1 4 3 -2 6 -13 5 -11 0 -14 -3 -6 -6z"/>
<path d="M10550 5320 c0 -5 7 -7 15 -4 8 4 15 8 15 10 0 2 -7 4 -15 4 -8 0
-15 -4 -15 -10z"/>
<path d="M11545 5300 c-3 -5 -2 -10 4 -10 5 0 13 5 16 10 3 6 2 10 -4 10 -5 0
-13 -4 -16 -10z"/>
<path d="M10345 5240 c-3 -5 -2 -10 4 -10 5 0 13 5 16 10 3 6 2 10 -4 10 -5 0
-13 -4 -16 -10z"/>
<path d="M11395 5230 c-8 -13 5 -13 25 0 13 8 13 10 -2 10 -9 0 -20 -4 -23
-10z"/>
<path d="M10525 4990 c-3 -5 -4 -10 -1 -10 2 0 11 -3 20 -6 11 -4 16 -1 16 10
0 18 -25 22 -35 6z"/>
<path d="M11175 4968 c-19 -8 -19 -8 2 -4 12 2 24 -1 26 -7 2 -8 5 -8 10 0 9
15 -14 22 -38 11z"/>
<path d="M10729 4962 c9 -7 10 -11 2 -15 -7 -4 -8 -5 0 -3 15 2 13 20 -3 24
-10 3 -10 2 1 -6z"/>
<path d="M10430 4946 c0 -24 -29 -46 -60 -46 -31 0 -53 -19 -23 -21 13 -1 11
-3 -7 -9 -36 -11 -52 -11 -45 0 8 12 -18 13 -30 1 -6 -5 -36 -5 -74 0 -35 5
-66 7 -69 4 -3 -3 2 -5 12 -5 10 0 24 -6 31 -14 12 -11 2 -14 -63 -19 -124
-10 -182 -19 -182 -28 0 -5 35 -10 78 -11 216 -6 414 25 559 86 34 14 70 26
80 26 12 1 6 8 -17 20 -24 13 -46 17 -67 13 -21 -3 -33 -1 -33 6 0 6 -4 11
-10 11 -5 0 -10 -11 -10 -25 0 -14 -3 -25 -6 -25 -12 0 -35 31 -29 40 3 5 -3
10 -14 10 -12 0 -21 -6 -21 -14z m-163 -112 c-3 -3 -12 -4 -19 -1 -8 3 -5 6 6
6 11 1 17 -2 13 -5z"/>
<path d="M10630 4950 c8 -5 20 -10 25 -10 6 0 3 5 -5 10 -8 5 -19 10 -25 10
-5 0 -3 -5 5 -10z"/>
<path d="M11126 4944 c-11 -7 -18 -16 -15 -18 2 -2 13 2 23 10 11 7 18 16 15
18 -2 2 -13 -2 -23 -10z"/>
<path d="M2573 4843 c-21 -8 -15 -23 10 -22 12 0 38 7 57 14 l35 13 -45 0
c-25 0 -51 -2 -57 -5z"/>
<path d="M2768 4823 c6 -2 18 -2 25 0 6 3 1 5 -13 5 -14 0 -19 -2 -12 -5z"/>
<path d="M2648 4813 c6 -2 18 -2 25 0 6 3 1 5 -13 5 -14 0 -19 -2 -12 -5z"/>
<path d="M2317 4794 c2 -7 11 -10 19 -7 19 7 18 10 -5 16 -13 3 -18 1 -14 -9z"/>
<path d="M2340 4772 c0 -15 25 -21 41 -11 9 5 9 9 2 9 -6 0 -18 3 -27 6 -9 3
-16 2 -16 -4z"/>
<path d="M2957 4727 c-4 -10 2 -13 19 -9 13 2 21 8 18 13 -8 14 -31 11 -37 -4z"/>
<path d="M2325 4710 c-13 -6 -15 -9 -5 -9 8 0 22 4 30 9 18 12 2 12 -25 0z"/>
<path d="M2403 4703 c9 -2 25 -2 35 0 9 3 1 5 -18 5 -19 0 -27 -2 -17 -5z"/>
<path d="M3310 4699 c14 -6 33 -8 42 -5 10 2 18 0 18 -4 0 -5 10 -11 23 -14
12 -3 -8 -3 -45 0 -40 3 -68 1 -68 -5 0 -5 6 -12 13 -14 10 -4 10 -6 0 -6 -7
-1 -22 8 -33 19 -11 11 -23 20 -27 20 -4 0 -2 -5 5 -12 20 -20 14 -36 -15 -40
-21 -2 517 0 547 2 3 0 -1 4 -9 9 -7 5 -61 9 -120 10 -112 2 -171 21 -66 21
51 1 57 2 40 13 -13 7 -76 12 -175 14 -110 1 -148 -1 -130 -8z m160 -15 c0 -2
-7 -4 -15 -4 -8 0 -15 4 -15 10 0 5 7 7 15 4 8 -4 15 -8 15 -10z"/>
<path d="M2370 4686 c14 -9 36 -15 50 -15 33 0 8 14 -40 23 -35 7 -35 7 -10
-8z"/>
<path d="M9805 4678 c-44 -4 -105 -17 -135 -28 l-55 -20 56 4 c93 8 254 38
265 49 6 6 -41 5 -131 -5z"/>
<path d="M2459 4661 c12 -8 51 -4 51 5 0 2 -15 4 -32 4 -23 0 -29 -3 -19 -9z"/>
<path d="M3808 4643 c6 -2 18 -2 25 0 6 3 1 5 -13 5 -14 0 -19 -2 -12 -5z"/>
<path d="M10157 4644 c-3 -3 -59 -12 -124 -20 -157 -18 -192 -23 -298 -40
-174 -27 -522 -58 -623 -55 -20 1 -31 -3 -27 -9 4 -7 -17 -8 -65 -4 -61 6 -70
5 -65 -9 6 -13 0 -14 -36 -10 -30 4 -40 3 -35 -5 4 -7 1 -12 -8 -12 -9 0 -16
-5 -16 -11 0 -6 9 -8 23 -3 35 11 44 11 19 0 -12 -6 -21 -15 -18 -21 3 -8 -14
-10 -57 -7 -134 9 -194 10 -247 4 -30 -3 -49 -7 -42 -10 23 -7 12 -22 -18 -22
-17 0 -39 -6 -50 -12 -18 -12 -17 -13 17 -23 46 -13 284 6 389 31 77 18 119
16 239 -11 90 -20 245 -41 360 -50 50 -3 115 -10 145 -15 30 -5 81 -12 113
-14 51 -5 57 -4 55 12 -2 12 5 18 25 20 15 2 27 7 27 12 0 14 65 28 160 35
184 14 332 59 366 111 9 13 19 22 21 20 7 -7 53 49 53 63 0 7 -9 21 -20 33
-16 17 -20 18 -20 6 0 -14 -12 -15 -87 -11 -105 5 -124 10 -103 23 11 7 7 10
-16 10 -17 0 -33 -3 -37 -6z m-1079 -181 c-10 -2 -26 -2 -35 0 -10 3 -2 5 17
5 19 0 27 -2 18 -5z m445 -60 c-9 -23 -20 -14 -15 13 3 17 7 22 12 13 5 -7 6
-18 3 -26z m-938 17 c3 -5 -1 -10 -9 -10 -9 0 -16 5 -16 10 0 6 4 10 9 10 6 0
13 -4 16 -10z m978 -27 c-7 -2 -19 -2 -25 0 -7 3 -2 5 12 5 14 0 19 -2 13 -5z"/>
<path d="M2310 4600 c0 -5 5 -10 11 -10 5 0 7 5 4 10 -3 6 -8 10 -11 10 -2 0
-4 -4 -4 -10z"/>
<path d="M9408 4603 c12 -2 32 -2 45 0 12 2 2 4 -23 4 -25 0 -35 -2 -22 -4z"/>
<path d="M9195 4589 l-80 -5 104 -2 c57 -1 102 0 99 3 -9 9 -40 10 -123 4z"/>
<path d="M8885 4570 l-60 -7 70 0 c39 -1 81 3 95 7 22 7 21 8 -10 7 -19 0 -62
-3 -95 -7z"/>
<path d="M7610 4520 c8 -5 33 -9 55 -9 35 1 37 2 15 9 -14 4 -38 8 -55 9 -23
0 -26 -2 -15 -9z"/>
<path d="M7463 4513 c20 -2 54 -2 75 0 20 2 3 4 -38 4 -41 0 -58 -2 -37 -4z"/>
<path d="M7565 4460 c-4 -6 7 -10 24 -10 17 0 31 5 31 10 0 6 -11 10 -24 10
-14 0 -28 -4 -31 -10z"/>
<path d="M4188 4453 c7 -3 16 -2 19 1 4 3 -2 6 -13 5 -11 0 -14 -3 -6 -6z"/>
<path d="M4228 4443 c6 -2 18 -2 25 0 6 3 1 5 -13 5 -14 0 -19 -2 -12 -5z"/>
<path d="M4255 4420 c-17 -7 -16 -9 10 -9 17 0 39 4 50 9 17 7 16 9 -10 9 -16
0 -39 -4 -50 -9z"/>
<path d="M4389 4381 c-9 -20 -16 -26 -21 -18 -5 7 -8 1 -8 -15 0 -21 5 -28 20
-28 17 0 19 5 15 31 -5 29 -4 30 11 15 9 -9 14 -23 11 -31 -4 -9 2 -15 16 -18
12 -2 -8 -5 -45 -6 -38 0 -68 -5 -68 -11 0 -5 -17 -11 -37 -11 -22 -1 -29 -4
-16 -6 12 -2 45 0 75 5 29 6 55 7 58 3 10 -15 209 5 229 23 9 9 31 16 47 17
19 1 9 6 -31 15 -37 8 -45 11 -20 9 22 -3 53 -5 68 -5 20 0 26 -4 21 -12 -4
-7 1 -6 12 3 10 9 33 21 49 27 25 9 10 11 -78 11 -60 1 -118 6 -129 12 -15 8
-19 8 -14 0 4 -6 0 -11 -9 -11 -9 0 -14 4 -11 9 8 13 -87 19 -97 7 -6 -8 -10
-7 -14 2 -8 20 -21 14 -34 -17z m231 -51 c13 -9 13 -10 0 -10 -8 0 -26 -3 -40
-6 -24 -6 -25 -6 -5 9 24 19 26 20 45 7z m-110 -26 c0 -2 -7 -4 -15 -4 -8 0
-15 4 -15 10 0 5 7 7 15 4 8 -4 15 -8 15 -10z"/>
<path d="M8920 4385 c-36 -7 -105 -16 -155 -20 -49 -4 -101 -9 -115 -11 -14
-2 -59 -9 -100 -15 -158 -22 -323 -50 -333 -56 -14 -9 20 -21 58 -22 23 -1 26
2 15 9 -11 7 -1 10 35 11 28 1 61 3 75 5 14 2 56 6 93 10 38 4 63 10 57 14 -6
4 33 10 87 14 54 3 113 9 131 12 17 4 32 2 32 -3 0 -9 -57 -33 -79 -33 -7 0
-27 -7 -44 -15 -18 -8 -57 -21 -87 -29 -75 -21 -125 -40 -128 -48 -3 -11 2
-11 50 -3 24 4 48 14 54 23 7 10 32 15 75 17 85 4 82 3 75 20 -4 11 2 15 20
15 28 0 65 17 76 34 4 6 36 12 70 13 35 1 97 4 138 6 49 4 66 2 50 -3 -19 -7
-15 -8 20 -5 25 1 52 6 61 10 9 3 124 -8 256 -24 261 -34 353 -39 243 -15 -36
8 -94 17 -130 20 -36 4 -68 8 -71 10 -4 2 -98 17 -210 34 -112 16 -215 32
-229 34 -14 3 -54 -1 -90 -9z"/>
<path d="M7470 4363 c-14 -3 -29 -9 -35 -14 -11 -11 98 -1 130 12 22 8 -49 10
-95 2z"/>
<path d="M8383 4363 c-18 -2 -33 -8 -33 -12 0 -8 118 4 127 13 7 6 -39 6 -94
-1z"/>
<path d="M4281 4334 c-19 -21 -19 -24 -3 -24 9 1 27 6 39 13 22 12 22 13 4 24
-15 10 -22 8 -40 -13z"/>
<path d="M4163 4283 c15 -2 39 -2 55 0 15 2 2 4 -28 4 -30 0 -43 -2 -27 -4z"/>
<path d="M4150 4233 c-109 -7 -376 -34 -440 -45 l-65 -12 40 -12 c48 -15 184
-18 219 -5 15 6 37 6 57 1 24 -7 35 -6 41 3 5 8 0 14 -15 18 -21 5 -21 6 -2
12 11 4 94 12 185 18 223 14 292 27 145 26 -60 0 -135 -2 -165 -4z m-267 -70
c-7 -2 -21 -2 -30 0 -10 3 -4 5 12 5 17 0 24 -2 18 -5z"/>
<path d="M4508 4233 c7 -3 16 -2 19 1 4 3 -2 6 -13 5 -11 0 -14 -3 -6 -6z"/>
<path d="M8385 4190 c-4 -6 8 -10 30 -10 22 0 34 4 30 10 -3 6 -17 10 -30 10
-13 0 -27 -4 -30 -10z"/>
</g>
</svg>
