<?xml version="1.0" standalone="no"?>
<!DOCTYPE svg PUBLIC "-//W3C//DTD SVG 20010904//EN"
 "http://www.w3.org/TR/2001/REC-SVG-20010904/DTD/svg10.dtd">
<svg version="1.0" xmlns="http://www.w3.org/2000/svg"
 width="233.000000pt" height="279.000000pt" viewBox="0 0 233.000000 279.000000"
 preserveAspectRatio="xMidYMid meet">

<g transform="translate(0.000000,279.000000) scale(0.100000,-0.100000)"
fill="#000000" stroke="none">
<path d="M1262 2591 c-37 -7 -35 -3 -91 -171 -28 -84 -29 -85 -82 -113 -30
-15 -74 -41 -98 -59 l-43 -31 -109 33 c-90 27 -111 31 -124 20 -26 -22 -155
-222 -155 -242 0 -10 22 -68 50 -128 37 -84 48 -118 43 -140 l-5 -30 -164 0
-164 0 0 -70 c0 -38 -2 -70 -5 -70 -3 0 -32 21 -65 47 -51 42 -58 51 -53 75 3
18 -2 39 -16 61 -33 54 -76 63 -116 22 -35 -34 -35 -106 0 -140 26 -27 64 -32
93 -14 15 10 28 5 73 -26 98 -68 89 -32 89 -352 0 -165 -4 -283 -9 -283 -15 0
-111 114 -111 132 0 22 30 38 69 38 17 0 31 5 31 10 0 6 -17 10 -38 10 -39 0
-62 -16 -75 -51 -10 -30 30 -96 82 -136 l50 -38 0 -126 c1 -84 -3 -129 -11
-137 -9 -9 49 -12 264 -12 l277 0 -4 -33 c-17 -137 -18 -134 28 -171 50 -40
209 -126 234 -126 10 0 52 38 93 85 l75 85 106 0 105 0 80 -78 c88 -88 103
-96 139 -80 23 11 34 28 18 28 -5 0 -29 20 -55 45 -44 41 -48 48 -48 91 0 37
7 55 32 88 17 22 33 43 35 45 2 3 20 -11 41 -30 l37 -34 -34 37 -34 37 47 56
c40 46 53 55 80 55 18 0 41 -9 54 -20 l22 -20 23 37 c14 21 32 44 41 52 9 7
16 17 16 22 0 4 16 35 35 67 34 58 36 60 97 75 35 8 82 18 104 22 l41 6 26
107 c14 59 28 132 32 163 7 63 8 61 -108 163 -50 44 -67 66 -67 85 0 14 -7 64
-16 111 -28 146 -28 142 6 216 17 38 40 90 50 115 l18 45 -25 50 c-48 96 -122
193 -156 207 -13 5 -52 -3 -114 -24 l-93 -31 -53 35 c-28 19 -75 47 -104 62
-46 25 -54 34 -68 79 -40 125 -68 184 -92 195 -25 11 -174 13 -231 2z m144
-322 c4 -6 8 -36 10 -65 3 -42 1 -54 -10 -54 -10 0 -14 9 -13 27 1 19 -3 28
-16 31 -15 3 -18 -1 -15 -24 2 -15 -2 -29 -9 -31 -16 -6 -18 79 -3 108 12 21
45 26 56 8z m-109 -21 c13 -12 23 -32 23 -45 0 -26 -32 -63 -55 -63 -23 0 -55
37 -55 65 0 26 31 65 52 65 6 0 22 -10 35 -22z m197 -4 c3 -9 6 -28 6 -42 1
-26 2 -25 21 11 11 21 24 35 30 32 13 -9 8 -126 -6 -122 -5 2 -9 21 -7 43 l2
39 -21 -38 c-24 -45 -30 -42 -39 16 l-6 42 -10 -42 c-6 -31 -13 -40 -22 -34
-10 6 -10 14 1 42 8 19 17 42 20 52 8 21 23 22 31 1z m-314 -9 c0 -8 -7 -15
-15 -15 -8 0 -15 -7 -15 -16 0 -10 6 -14 15 -11 8 4 17 2 20 -2 3 -5 -2 -12
-10 -15 -10 -3 -15 -16 -13 -32 5 -49 -18 -35 -29 17 -9 46 -8 54 8 70 23 23
39 24 39 4z m502 -18 c-6 -7 -10 -22 -10 -34 2 -24 -22 -103 -32 -103 -15 0
-18 13 -8 30 9 14 8 22 -5 34 -15 15 -17 14 -24 -13 -5 -21 -12 -28 -21 -23
-16 11 21 91 46 98 9 3 24 9 32 14 23 13 34 12 22 -3z m-585 -13 c-3 -3 3 -26
14 -52 25 -57 13 -72 -30 -37 -33 29 -40 23 -15 -13 14 -20 12 -42 -4 -42 -7
0 -28 52 -39 98 -7 31 14 28 51 -5 l30 -28 -21 37 c-22 37 -21 48 5 48 9 0 13
-3 9 -6z m644 -47 c8 -7 27 -22 42 -33 l27 -22 -34 -51 c-19 -28 -37 -47 -41
-41 -3 5 6 28 21 50 23 35 25 43 13 51 -25 16 -36 10 -54 -31 -15 -33 -21 -38
-32 -28 -12 10 -12 13 0 20 22 12 44 71 29 76 -16 5 -15 22 1 22 6 0 19 -6 28
-13z m-728 -53 c27 -46 33 -64 20 -64 -9 1 -63 87 -63 101 0 20 16 6 43 -37z
m850 -62 c20 -22 12 -35 -13 -20 -9 6 -25 8 -34 5 -19 -7 -22 -53 -3 -60 6 -2
9 -8 5 -12 -4 -4 -14 -5 -23 -2 -24 10 -20 73 7 91 29 21 41 20 61 -2z m-422
-2 c184 -34 343 -195 399 -403 19 -71 22 -100 18 -217 -3 -85 -10 -148 -19
-169 l-15 -35 -49 135 c-135 370 -134 368 -135 322 0 -46 -14 -57 -24 -20 -3
12 -14 33 -25 46 l-18 24 -14 -51 c-7 -29 -16 -52 -20 -52 -4 0 -13 17 -19 38
-18 55 -25 57 -44 10 -13 -34 -19 -40 -26 -28 -5 8 -10 27 -10 43 0 15 -3 27
-7 27 -6 0 -57 -129 -91 -228 -3 -9 2 -10 23 -2 14 5 40 10 57 10 25 0 28 -3
19 -14 -7 -8 -13 -56 -14 -112 -2 -55 -6 -105 -11 -112 -4 -7 -6 -16 -3 -19
16 -15 77 135 77 191 1 28 2 29 12 11 7 -11 12 -59 12 -110 0 -106 -24 -178
-79 -242 l-34 -41 14 -77 c21 -110 21 -115 -16 -115 l-31 0 3 102 c2 71 -1
111 -10 130 l-14 27 -41 -27 c-116 -74 -152 -92 -182 -92 -42 0 -58 25 -37 57
8 13 11 23 6 23 -5 0 -9 28 -8 61 2 52 0 59 -11 45 -11 -15 -15 -10 -37 38
-14 31 -40 76 -57 101 l-31 45 101 0 100 0 0 181 c0 161 -2 180 -16 175 -9 -3
-79 -6 -157 -6 l-140 0 -42 -43 c-62 -65 -90 -148 -90 -269 0 -55 -4 -93 -9
-88 -13 13 0 209 18 266 9 29 34 72 57 98 39 44 43 46 93 46 l52 0 37 65 c111
192 299 290 488 255z m-571 -39 c0 -5 -9 -11 -20 -14 -24 -6 -27 -48 -5 -67
23 -19 55 -3 55 28 -1 26 -1 26 -15 8 -19 -25 -30 -14 -13 13 15 25 33 27 42
5 10 -26 7 -47 -11 -66 -21 -24 -48 -23 -73 2 -24 24 -26 57 -3 82 17 19 43
24 43 9z m95 -11 c3 -5 2 -10 -4 -10 -5 0 -13 5 -16 10 -3 6 -2 10 4 10 5 0
13 -4 16 -10z m963 -45 c2 -24 -4 -35 -32 -57 -19 -16 -37 -24 -41 -19 -3 5 3
16 14 23 16 11 17 16 6 31 -12 16 -14 16 -29 2 -9 -9 -20 -13 -26 -10 -14 9
-12 25 3 25 8 0 22 9 32 20 12 13 29 20 44 18 21 -2 27 -9 29 -33z m-1068
-106 c0 -4 -19 -9 -42 -11 l-43 -3 28 -14 c15 -8 27 -20 27 -28 0 -19 -6 -17
-56 18 -50 34 -49 49 4 49 34 1 36 2 18 15 -10 8 -23 16 -29 18 -6 2 -7 8 -3
15 4 7 21 1 51 -20 25 -18 45 -35 45 -39z m1130 -8 c0 -5 -7 -14 -15 -21 -19
-16 -9 -33 16 -27 10 3 21 1 24 -4 7 -11 -40 -23 -55 -14 -6 4 -17 1 -25 -5
-15 -12 -35 -6 -35 11 0 5 8 9 18 9 9 0 25 14 34 30 16 28 38 40 38 21z
m-1251 -45 c9 -8 30 -18 48 -23 23 -6 30 -12 24 -21 -6 -11 -17 -9 -54 9 -26
13 -47 29 -47 36 0 17 10 16 29 -1z m-264 -149 c3 -12 5 -55 3 -95 l-3 -73
-62 46 c-62 46 -63 47 -63 96 l0 49 60 0 c54 0 60 -2 65 -23z m169 7 c11 -29
7 -294 -5 -294 -6 0 -37 21 -70 46 l-59 45 0 110 0 109 64 0 c49 0 65 -4 70
-16z m480 -10 c3 -9 6 -63 6 -120 l0 -104 -93 0 c-89 0 -94 -1 -107 -24 -17
-32 -6 -84 26 -127 14 -19 39 -60 55 -92 24 -46 28 -65 23 -93 -5 -28 -2 -42
15 -65 37 -49 12 -33 -79 55 -49 46 -120 110 -159 141 -62 52 -71 63 -81 107
-5 27 -10 69 -10 93 0 65 38 172 75 211 l32 34 146 0 c123 0 146 -2 151 -16z
m922 -19 c4 -14 3 -29 0 -33 -4 -3 -9 4 -13 16 -8 31 -19 27 -29 -10 -12 -41
-37 -47 -52 -13 -15 32 -15 55 -2 55 6 0 10 -11 10 -25 0 -27 18 -34 25 -10 3
8 7 22 10 30 8 25 44 18 51 -10z m14 -86 c0 -11 -3 -18 -8 -15 -4 2 -26 1 -50
-4 -60 -11 -56 14 6 27 26 6 48 11 50 12 1 0 2 -8 2 -20z m-1637 -55 l58 -45
-3 -235 c-3 -217 -2 -234 15 -234 16 0 17 17 17 221 0 128 4 219 9 217 5 -1
37 -25 71 -51 l62 -48 -4 -170 -3 -169 86 0 c103 0 124 11 124 67 0 27 -11 56
-38 97 -20 33 -35 62 -32 64 5 6 132 -105 218 -190 40 -39 57 -64 57 -82 0
-29 -37 -133 -50 -141 -5 -3 -71 -1 -147 4 -200 15 -322 50 -460 134 l-53 31
0 288 c0 158 3 288 8 288 4 0 33 -21 65 -46z m1557 -14 c0 -38 10 -38 33 1 21
38 41 33 45 -12 2 -33 2 -33 -11 -11 l-14 24 -17 -26 c-28 -44 -56 -29 -56 30
0 13 5 24 10 24 6 0 10 -13 10 -30z m71 -157 c-9 -16 -10 -16 -11 3 0 24 -18
34 -56 34 -14 0 -24 6 -24 14 0 11 9 13 36 9 29 -5 39 -2 48 13 10 17 11 14
14 -18 2 -21 -1 -46 -7 -55z m-25 -38 c17 -27 16 -56 -4 -63 -9 -3 -11 3 -7
21 4 14 2 28 -4 31 -6 4 -11 0 -11 -8 0 -8 -5 -18 -11 -22 -9 -5 -10 1 -5 20
3 14 2 26 -3 26 -13 0 -32 -26 -24 -33 3 -4 1 -7 -5 -7 -7 0 -12 8 -12 18 0
45 60 57 86 17z m-16 -128 c0 -5 -16 -7 -35 -5 -40 5 -43 -1 -15 -27 28 -25
26 -49 -2 -41 -13 4 -35 9 -50 12 -16 4 -28 13 -28 21 0 15 10 15 55 -2 16 -7
15 -3 -7 22 -37 39 -35 47 8 40 30 -5 34 -4 24 8 -7 8 -19 15 -26 15 -14 0
-19 21 -9 32 7 7 85 -62 85 -75z m-231 -21 c-18 -31 -34 -54 -36 -52 -5 4 61
114 66 110 2 -2 -11 -28 -30 -58z m-952 -69 l6 -37 -72 0 c-41 0 -71 4 -71 10
0 6 26 10 59 10 33 0 62 4 65 9 4 5 1 22 -5 38 -7 20 -7 25 1 17 6 -6 13 -27
17 -47z m1082 -12 c17 -20 31 -38 31 -41 0 -17 -23 -44 -38 -44 -25 1 -86 56
-72 65 6 4 17 -1 24 -10 11 -15 13 -15 25 -1 12 14 11 19 -3 34 -9 10 -16 22
-16 25 0 16 20 4 49 -28z m-186 0 c-3 -9 -8 -14 -10 -11 -3 3 -2 9 2 15 9 16
15 13 8 -4z m93 -74 c-22 -24 -20 -33 7 -31 12 1 28 2 35 1 17 -1 15 -46 -3
-61 -19 -16 -34 -5 -17 12 19 19 14 30 -10 28 -41 -4 -48 0 -48 22 0 25 28 60
42 52 5 -3 2 -14 -6 -23z m-682 1 c2 -4 1 -14 -4 -22 -7 -11 -11 -11 -24 -1
-9 8 -16 17 -16 22 0 11 37 12 44 1z m-743 -73 c92 -65 270 -121 429 -134 104
-8 163 -16 158 -20 -2 -2 -136 -6 -297 -9 -218 -4 -297 -2 -312 7 -16 10 -19
24 -19 94 0 46 3 83 6 83 3 0 19 -9 35 -21z m644 -241 c0 -41 4 -53 15 -53 11
0 16 14 18 53 2 28 7 52 13 52 10 0 13 -89 3 -114 -9 -22 -51 -20 -64 3 -15
29 -13 111 3 111 9 0 13 -16 12 -52z m115 10 l20 -43 0 43 c0 23 5 42 10 42 6
0 10 -28 10 -65 0 -78 -17 -87 -43 -22 l-17 42 3 -42 c2 -33 -1 -43 -13 -43
-12 0 -14 11 -12 52 5 92 14 99 42 36z m124 20 c20 -28 22 -108 2 -108 -9 0
-12 8 -8 25 3 21 0 25 -18 25 -18 0 -21 -4 -18 -25 4 -18 1 -25 -11 -25 -13 0
-15 9 -12 52 5 78 33 102 65 56z m79 -25 l14 -47 12 49 c10 41 14 46 25 34 8
-8 16 -38 19 -66 5 -43 3 -53 -9 -53 -8 0 -13 4 -10 8 3 5 2 22 -3 38 l-8 29
-7 -38 c-9 -46 -25 -44 -42 4 l-12 34 -1 -37 c-1 -25 -6 -38 -14 -38 -11 0
-12 11 -5 57 14 88 21 93 41 26z m155 30 c5 -10 8 -38 8 -63 -1 -44 -2 -45
-36 -48 l-35 -3 4 53 c1 29 8 59 13 66 15 17 36 15 46 -5z m90 5 c5 -7 12 -37
14 -65 4 -41 2 -53 -9 -53 -9 0 -12 7 -7 25 5 21 3 25 -15 25 -16 0 -21 -6
-21 -25 0 -14 -6 -25 -12 -25 -9 0 -12 15 -9 52 3 55 14 78 36 78 7 0 17 -6
23 -12z"/>
<path d="M1364 2245 c-4 -9 -4 -18 -2 -21 9 -8 39 8 35 19 -6 18 -27 20 -33 2z"/>
<path d="M1237 2234 c-14 -14 -7 -53 12 -63 26 -14 54 8 49 40 -2 17 -10 25
-28 27 -14 2 -29 0 -33 -4z"/>
<path d="M1620 2181 c0 -10 30 -24 37 -17 3 3 2 9 -2 15 -8 13 -35 15 -35 2z"/>
<path d="M1183 1285 c-9 -25 4 -29 17 -6 7 15 7 21 0 21 -6 0 -13 -7 -17 -15z"/>
<path d="M1298 1256 c-10 -7 -18 -21 -18 -31 0 -9 -9 -19 -19 -22 -20 -5 -48
-59 -37 -70 8 -9 103 93 109 118 6 22 -10 24 -35 5z"/>
<path d="M1880 1951 c0 -5 6 -14 14 -20 16 -13 32 2 21 19 -8 12 -35 13 -35 1z"/>
<path d="M1896 994 c-8 -22 1 -31 16 -16 9 9 9 15 1 23 -7 7 -12 5 -17 -7z"/>
<path d="M1234 665 c-4 -9 -4 -18 -2 -21 9 -8 39 8 35 19 -6 18 -27 20 -33 2z"/>
<path d="M1470 661 c0 -14 5 -19 15 -14 17 6 15 25 -3 31 -7 2 -12 -5 -12 -17z"/>
<path d="M1467 601 c3 -12 11 -17 19 -14 21 8 17 33 -5 33 -14 0 -18 -5 -14
-19z"/>
<path d="M1567 673 c-15 -14 -6 -31 12 -26 12 3 17 11 14 19 -6 15 -16 18 -26
7z"/>
<path d="M1869 603 c-13 -16 -12 -17 4 -4 16 13 21 21 13 21 -2 0 -10 -8 -17
-17z"/>
<path d="M1790 545 c19 -19 36 -35 39 -35 3 0 -10 16 -29 35 -19 19 -36 35
-39 35 -3 0 10 -16 29 -35z"/>
<path d="M1840 485 c7 -9 15 -13 17 -11 7 7 -7 26 -19 26 -6 0 -6 -6 2 -15z"/>
<path d="M1760 270 c0 -28 58 -116 94 -144 94 -71 239 -30 287 82 21 48 24 66
9 42 -6 -9 -13 -11 -17 -5 -9 11 -129 20 -268 20 -49 0 -93 5 -97 10 -5 6 -8
4 -8 -5z"/>
</g>
</svg>
